solid OpenSCAD_Model
  facet normal -0.707108 -0.707106 0
    outer loop
      vertex 2.06246 -0.979555 0
      vertex 1.41432 -0.331413 7.99
      vertex 1.41432 -0.331413 0
    endloop
  endfacet
  facet normal -0.707108 -0.707106 0
    outer loop
      vertex 1.41432 -0.331413 7.99
      vertex 2.06246 -0.979555 0
      vertex 2.06246 -0.979555 7.99
    endloop
  endfacet
  facet normal -0.707101 0.707112 0
    outer loop
      vertex 2.04766 1.01528 0
      vertex 1.54856 0.516188 7.99
      vertex 2.04766 1.01528 7.99
    endloop
  endfacet
  facet normal -0.707101 0.707112 0
    outer loop
      vertex 1.54856 0.516188 7.99
      vertex 2.04766 1.01528 0
      vertex 1.54856 0.516188 0
    endloop
  endfacet
  facet normal -0.891011 0.453982 0
    outer loop
      vertex 1.34374 0.114197 0
      vertex 1.54856 0.516188 7.99
      vertex 1.54856 0.516188 0
    endloop
  endfacet
  facet normal -0.891011 0.453982 0
    outer loop
      vertex 1.54856 0.516188 7.99
      vertex 1.34374 0.114197 0
      vertex 1.34374 0.114197 7.99
    endloop
  endfacet
  facet normal -0.987688 -0.156439 0
    outer loop
      vertex 1.41432 -0.331413 0
      vertex 1.34374 0.114197 7.99
      vertex 1.34374 0.114197 0
    endloop
  endfacet
  facet normal -0.987688 -0.156439 0
    outer loop
      vertex 1.34374 0.114197 7.99
      vertex 1.41432 -0.331413 0
      vertex 1.41432 -0.331413 7.99
    endloop
  endfacet
  facet normal 0.707106 -0.707108 0
    outer loop
      vertex 0.331413 1.41432 7.99
      vertex 0.979555 2.06246 0
      vertex 0.979555 2.06246 7.99
    endloop
  endfacet
  facet normal 0.707106 -0.707108 0
    outer loop
      vertex 0.979555 2.06246 0
      vertex 0.331413 1.41432 7.99
      vertex 0.331413 1.41432 0
    endloop
  endfacet
  facet normal -0.453982 -0.891011 0
    outer loop
      vertex -0.516188 1.54856 0
      vertex -0.114197 1.34374 7.99
      vertex -0.516188 1.54856 7.99
    endloop
  endfacet
  facet normal -0.453982 -0.891011 -0
    outer loop
      vertex -0.114197 1.34374 7.99
      vertex -0.516188 1.54856 0
      vertex -0.114197 1.34374 0
    endloop
  endfacet
  facet normal 0.156439 -0.987688 0
    outer loop
      vertex -0.114197 1.34374 0
      vertex 0.331413 1.41432 7.99
      vertex -0.114197 1.34374 7.99
    endloop
  endfacet
  facet normal 0.156439 -0.987688 0
    outer loop
      vertex 0.331413 1.41432 7.99
      vertex -0.114197 1.34374 0
      vertex 0.331413 1.41432 0
    endloop
  endfacet
  facet normal -0.707112 -0.707101 0
    outer loop
      vertex -0.516188 1.54856 0
      vertex -1.01528 2.04766 7.99
      vertex -1.01528 2.04766 0
    endloop
  endfacet
  facet normal -0.707112 -0.707101 0
    outer loop
      vertex -1.01528 2.04766 7.99
      vertex -0.516188 1.54856 0
      vertex -0.516188 1.54856 7.99
    endloop
  endfacet
  facet normal 0.987688 0.156439 0
    outer loop
      vertex -1.34374 -0.114197 7.99
      vertex -1.41432 0.331413 0
      vertex -1.41432 0.331413 7.99
    endloop
  endfacet
  facet normal 0.987688 0.156439 0
    outer loop
      vertex -1.41432 0.331413 0
      vertex -1.34374 -0.114197 7.99
      vertex -1.34374 -0.114197 0
    endloop
  endfacet
  facet normal 0.707108 0.707106 0
    outer loop
      vertex -1.41432 0.331413 7.99
      vertex -2.06246 0.979555 0
      vertex -2.06246 0.979555 7.99
    endloop
  endfacet
  facet normal 0.707108 0.707106 0
    outer loop
      vertex -2.06246 0.979555 0
      vertex -1.41432 0.331413 7.99
      vertex -1.41432 0.331413 0
    endloop
  endfacet
  facet normal 0.891011 -0.453982 0
    outer loop
      vertex -1.54856 -0.516188 7.99
      vertex -1.34374 -0.114197 0
      vertex -1.34374 -0.114197 7.99
    endloop
  endfacet
  facet normal 0.891011 -0.453982 0
    outer loop
      vertex -1.34374 -0.114197 0
      vertex -1.54856 -0.516188 7.99
      vertex -1.54856 -0.516188 0
    endloop
  endfacet
  facet normal 0.707101 -0.707112 0
    outer loop
      vertex -2.04766 -1.01528 0
      vertex -1.54856 -0.516188 7.99
      vertex -2.04766 -1.01528 7.99
    endloop
  endfacet
  facet normal 0.707101 -0.707112 0
    outer loop
      vertex -1.54856 -0.516188 7.99
      vertex -2.04766 -1.01528 0
      vertex -1.54856 -0.516188 0
    endloop
  endfacet
  facet normal -0.707106 0.707108 0
    outer loop
      vertex -0.979555 -2.06246 0
      vertex -0.331413 -1.41432 7.99
      vertex -0.331413 -1.41432 0
    endloop
  endfacet
  facet normal -0.707106 0.707108 0
    outer loop
      vertex -0.331413 -1.41432 7.99
      vertex -0.979555 -2.06246 0
      vertex -0.979555 -2.06246 7.99
    endloop
  endfacet
  facet normal 0.453982 0.891011 -0
    outer loop
      vertex 0.516188 -1.54856 0
      vertex 0.114197 -1.34374 7.99
      vertex 0.516188 -1.54856 7.99
    endloop
  endfacet
  facet normal 0.453982 0.891011 0
    outer loop
      vertex 0.114197 -1.34374 7.99
      vertex 0.516188 -1.54856 0
      vertex 0.114197 -1.34374 0
    endloop
  endfacet
  facet normal 0.707112 0.707101 0
    outer loop
      vertex 1.01528 -2.04766 7.99
      vertex 0.516188 -1.54856 0
      vertex 0.516188 -1.54856 7.99
    endloop
  endfacet
  facet normal 0.707112 0.707101 0
    outer loop
      vertex 0.516188 -1.54856 0
      vertex 1.01528 -2.04766 7.99
      vertex 1.01528 -2.04766 0
    endloop
  endfacet
  facet normal -0.156439 0.987688 0
    outer loop
      vertex 0.114197 -1.34374 0
      vertex -0.331413 -1.41432 7.99
      vertex 0.114197 -1.34374 7.99
    endloop
  endfacet
  facet normal -0.156439 0.987688 0
    outer loop
      vertex -0.331413 -1.41432 7.99
      vertex 0.114197 -1.34374 0
      vertex -0.331413 -1.41432 0
    endloop
  endfacet
  facet normal 0.608755 -0.793358 0
    outer loop
      vertex -1.62635 1.62635 0
      vertex -1.15 1.99186 7.99
      vertex -1.62635 1.62635 7.99
    endloop
  endfacet
  facet normal 0.608755 -0.793358 0
    outer loop
      vertex -1.15 1.99186 7.99
      vertex -1.62635 1.62635 0
      vertex -1.15 1.99186 0
    endloop
  endfacet
  facet normal 0.793358 -0.608755 0
    outer loop
      vertex -1.99186 1.15 7.99
      vertex -1.62635 1.62635 0
      vertex -1.62635 1.62635 7.99
    endloop
  endfacet
  facet normal 0.793358 -0.608755 0
    outer loop
      vertex -1.62635 1.62635 0
      vertex -1.99186 1.15 7.99
      vertex -1.99186 1.15 0
    endloop
  endfacet
  facet normal -0.923881 0.382681 0
    outer loop
      vertex 1.99186 -1.15 0
      vertex 2.06246 -0.979555 7.99
      vertex 2.06246 -0.979555 0
    endloop
  endfacet
  facet normal -0.923881 0.382681 0
    outer loop
      vertex 2.06246 -0.979555 7.99
      vertex 1.99186 -1.15 0
      vertex 1.99186 -1.15 7.99
    endloop
  endfacet
  facet normal -0.382681 -0.923881 0
    outer loop
      vertex 0.979555 2.06246 0
      vertex 1.15 1.99186 7.99
      vertex 0.979555 2.06246 7.99
    endloop
  endfacet
  facet normal -0.382681 -0.923881 -0
    outer loop
      vertex 1.15 1.99186 7.99
      vertex 0.979555 2.06246 0
      vertex 1.15 1.99186 0
    endloop
  endfacet
  facet normal -0.608755 0.793358 0
    outer loop
      vertex 1.62635 -1.62635 0
      vertex 1.15 -1.99186 7.99
      vertex 1.62635 -1.62635 7.99
    endloop
  endfacet
  facet normal -0.608755 0.793358 0
    outer loop
      vertex 1.15 -1.99186 7.99
      vertex 1.62635 -1.62635 0
      vertex 1.15 -1.99186 0
    endloop
  endfacet
  facet normal -0.608755 -0.793358 0
    outer loop
      vertex 1.15 1.99186 0
      vertex 1.62635 1.62635 7.99
      vertex 1.15 1.99186 7.99
    endloop
  endfacet
  facet normal -0.608755 -0.793358 -0
    outer loop
      vertex 1.62635 1.62635 7.99
      vertex 1.15 1.99186 0
      vertex 1.62635 1.62635 0
    endloop
  endfacet
  facet normal -0.923886 -0.382667 0
    outer loop
      vertex 2.04766 1.01528 0
      vertex 1.99186 1.15 7.99
      vertex 1.99186 1.15 0
    endloop
  endfacet
  facet normal -0.923886 -0.382667 0
    outer loop
      vertex 1.99186 1.15 7.99
      vertex 2.04766 1.01528 0
      vertex 2.04766 1.01528 7.99
    endloop
  endfacet
  facet normal 0.382667 -0.923886 0
    outer loop
      vertex -1.15 1.99186 0
      vertex -1.01528 2.04766 7.99
      vertex -1.15 1.99186 7.99
    endloop
  endfacet
  facet normal 0.382667 -0.923886 0
    outer loop
      vertex -1.01528 2.04766 7.99
      vertex -1.15 1.99186 0
      vertex -1.01528 2.04766 0
    endloop
  endfacet
  facet normal -0.793358 0.608755 0
    outer loop
      vertex 1.62635 -1.62635 0
      vertex 1.99186 -1.15 7.99
      vertex 1.99186 -1.15 0
    endloop
  endfacet
  facet normal -0.793358 0.608755 0
    outer loop
      vertex 1.99186 -1.15 7.99
      vertex 1.62635 -1.62635 0
      vertex 1.62635 -1.62635 7.99
    endloop
  endfacet
  facet normal 0.382681 0.923881 -0
    outer loop
      vertex -0.979555 -2.06246 0
      vertex -1.15 -1.99186 7.99
      vertex -0.979555 -2.06246 7.99
    endloop
  endfacet
  facet normal 0.382681 0.923881 0
    outer loop
      vertex -1.15 -1.99186 7.99
      vertex -0.979555 -2.06246 0
      vertex -1.15 -1.99186 0
    endloop
  endfacet
  facet normal -0.793358 -0.608755 0
    outer loop
      vertex 1.99186 1.15 0
      vertex 1.62635 1.62635 7.99
      vertex 1.62635 1.62635 0
    endloop
  endfacet
  facet normal -0.793358 -0.608755 0
    outer loop
      vertex 1.62635 1.62635 7.99
      vertex 1.99186 1.15 0
      vertex 1.99186 1.15 7.99
    endloop
  endfacet
  facet normal -0.382667 0.923886 0
    outer loop
      vertex 1.15 -1.99186 0
      vertex 1.01528 -2.04766 7.99
      vertex 1.15 -1.99186 7.99
    endloop
  endfacet
  facet normal -0.382667 0.923886 0
    outer loop
      vertex 1.01528 -2.04766 7.99
      vertex 1.15 -1.99186 0
      vertex 1.01528 -2.04766 0
    endloop
  endfacet
  facet normal 0.793358 0.608755 0
    outer loop
      vertex -1.62635 -1.62635 7.99
      vertex -1.99186 -1.15 0
      vertex -1.99186 -1.15 7.99
    endloop
  endfacet
  facet normal 0.793358 0.608755 0
    outer loop
      vertex -1.99186 -1.15 0
      vertex -1.62635 -1.62635 7.99
      vertex -1.62635 -1.62635 0
    endloop
  endfacet
  facet normal 0.608755 0.793358 -0
    outer loop
      vertex -1.15 -1.99186 0
      vertex -1.62635 -1.62635 7.99
      vertex -1.15 -1.99186 7.99
    endloop
  endfacet
  facet normal 0.608755 0.793358 0
    outer loop
      vertex -1.62635 -1.62635 7.99
      vertex -1.15 -1.99186 0
      vertex -1.62635 -1.62635 0
    endloop
  endfacet
  facet normal 0.923881 -0.382681 0
    outer loop
      vertex -2.06246 0.979555 7.99
      vertex -1.99186 1.15 0
      vertex -1.99186 1.15 7.99
    endloop
  endfacet
  facet normal 0.923881 -0.382681 0
    outer loop
      vertex -1.99186 1.15 0
      vertex -2.06246 0.979555 7.99
      vertex -2.06246 0.979555 0
    endloop
  endfacet
  facet normal 0.923886 0.382667 0
    outer loop
      vertex -1.99186 -1.15 7.99
      vertex -2.04766 -1.01528 0
      vertex -2.04766 -1.01528 7.99
    endloop
  endfacet
  facet normal 0.923886 0.382667 0
    outer loop
      vertex -2.04766 -1.01528 0
      vertex -1.99186 -1.15 7.99
      vertex -1.99186 -1.15 0
    endloop
  endfacet
  facet normal 0.991445 0.130529 0
    outer loop
      vertex 4 0 7.99
      vertex 3.8637 1.03528 0
      vertex 3.8637 1.03528 7.99
    endloop
  endfacet
  facet normal 0.991445 0.130529 0
    outer loop
      vertex 3.8637 1.03528 0
      vertex 4 0 7.99
      vertex 4 0 0
    endloop
  endfacet
  facet normal 0.382683 0.92388 -0
    outer loop
      vertex 2 3.4641 0
      vertex 1.03528 3.8637 7.99
      vertex 2 3.4641 7.99
    endloop
  endfacet
  facet normal 0.382683 0.92388 0
    outer loop
      vertex 1.03528 3.8637 7.99
      vertex 2 3.4641 0
      vertex 1.03528 3.8637 0
    endloop
  endfacet
  facet normal -0.382683 -0.92388 0
    outer loop
      vertex -2 -3.4641 0
      vertex -1.03528 -3.8637 7.99
      vertex -2 -3.4641 7.99
    endloop
  endfacet
  facet normal -0.382683 -0.92388 -0
    outer loop
      vertex -1.03528 -3.8637 7.99
      vertex -2 -3.4641 0
      vertex -1.03528 -3.8637 0
    endloop
  endfacet
  facet normal 0.92388 0.382683 0
    outer loop
      vertex 3.8637 1.03528 7.99
      vertex 3.4641 2 0
      vertex 3.4641 2 7.99
    endloop
  endfacet
  facet normal 0.92388 0.382683 0
    outer loop
      vertex 3.4641 2 0
      vertex 3.8637 1.03528 7.99
      vertex 3.8637 1.03528 0
    endloop
  endfacet
  facet normal 0.130529 0.991445 -0
    outer loop
      vertex 1.03528 3.8637 0
      vertex 0 4 7.99
      vertex 1.03528 3.8637 7.99
    endloop
  endfacet
  facet normal 0.130529 0.991445 0
    outer loop
      vertex 0 4 7.99
      vertex 1.03528 3.8637 0
      vertex 0 4 0
    endloop
  endfacet
  facet normal -0.382683 0.92388 0
    outer loop
      vertex -1.03528 3.8637 0
      vertex -2 3.4641 7.99
      vertex -1.03528 3.8637 7.99
    endloop
  endfacet
  facet normal -0.382683 0.92388 0
    outer loop
      vertex -2 3.4641 7.99
      vertex -1.03528 3.8637 0
      vertex -2 3.4641 0
    endloop
  endfacet
  facet normal -0.608757 0.793356 0
    outer loop
      vertex -2 3.4641 0
      vertex -2.82843 2.82843 7.99
      vertex -2 3.4641 7.99
    endloop
  endfacet
  facet normal -0.608757 0.793356 0
    outer loop
      vertex -2.82843 2.82843 7.99
      vertex -2 3.4641 0
      vertex -2.82843 2.82843 0
    endloop
  endfacet
  facet normal 0.608757 -0.793356 0
    outer loop
      vertex 2 -3.4641 0
      vertex 2.82843 -2.82843 7.99
      vertex 2 -3.4641 7.99
    endloop
  endfacet
  facet normal 0.608757 -0.793356 0
    outer loop
      vertex 2.82843 -2.82843 7.99
      vertex 2 -3.4641 0
      vertex 2.82843 -2.82843 0
    endloop
  endfacet
  facet normal -0.92388 -0.382683 0
    outer loop
      vertex -3.4641 -2 0
      vertex -3.8637 -1.03528 7.99
      vertex -3.8637 -1.03528 0
    endloop
  endfacet
  facet normal -0.92388 -0.382683 0
    outer loop
      vertex -3.8637 -1.03528 7.99
      vertex -3.4641 -2 0
      vertex -3.4641 -2 7.99
    endloop
  endfacet
  facet normal -0.608757 -0.793356 0
    outer loop
      vertex -2.82843 -2.82843 0
      vertex -2 -3.4641 7.99
      vertex -2.82843 -2.82843 7.99
    endloop
  endfacet
  facet normal -0.608757 -0.793356 -0
    outer loop
      vertex -2 -3.4641 7.99
      vertex -2.82843 -2.82843 0
      vertex -2 -3.4641 0
    endloop
  endfacet
  facet normal -0.793356 -0.608757 0
    outer loop
      vertex -2.82843 -2.82843 0
      vertex -3.4641 -2 7.99
      vertex -3.4641 -2 0
    endloop
  endfacet
  facet normal -0.793356 -0.608757 0
    outer loop
      vertex -3.4641 -2 7.99
      vertex -2.82843 -2.82843 0
      vertex -2.82843 -2.82843 7.99
    endloop
  endfacet
  facet normal 0.793356 0.608757 0
    outer loop
      vertex 3.4641 2 7.99
      vertex 2.82843 2.82843 0
      vertex 2.82843 2.82843 7.99
    endloop
  endfacet
  facet normal 0.793356 0.608757 0
    outer loop
      vertex 2.82843 2.82843 0
      vertex 3.4641 2 7.99
      vertex 3.4641 2 0
    endloop
  endfacet
  facet normal 0.608757 0.793356 -0
    outer loop
      vertex 2.82843 2.82843 0
      vertex 2 3.4641 7.99
      vertex 2.82843 2.82843 7.99
    endloop
  endfacet
  facet normal 0.608757 0.793356 0
    outer loop
      vertex 2 3.4641 7.99
      vertex 2.82843 2.82843 0
      vertex 2 3.4641 0
    endloop
  endfacet
  facet normal -0.991445 0.130529 0
    outer loop
      vertex -4 0 0
      vertex -3.8637 1.03528 7.99
      vertex -3.8637 1.03528 0
    endloop
  endfacet
  facet normal -0.991445 0.130529 0
    outer loop
      vertex -3.8637 1.03528 7.99
      vertex -4 0 0
      vertex -4 0 7.99
    endloop
  endfacet
  facet normal -0.793356 0.608757 0
    outer loop
      vertex -3.4641 2 0
      vertex -2.82843 2.82843 7.99
      vertex -2.82843 2.82843 0
    endloop
  endfacet
  facet normal -0.793356 0.608757 0
    outer loop
      vertex -2.82843 2.82843 7.99
      vertex -3.4641 2 0
      vertex -3.4641 2 7.99
    endloop
  endfacet
  facet normal -0.130529 0.991445 0
    outer loop
      vertex 0 4 0
      vertex -1.03528 3.8637 7.99
      vertex 0 4 7.99
    endloop
  endfacet
  facet normal -0.130529 0.991445 0
    outer loop
      vertex -1.03528 3.8637 7.99
      vertex 0 4 0
      vertex -1.03528 3.8637 0
    endloop
  endfacet
  facet normal 0.92388 -0.382683 0
    outer loop
      vertex 3.4641 -2 7.99
      vertex 3.8637 -1.03528 0
      vertex 3.8637 -1.03528 7.99
    endloop
  endfacet
  facet normal 0.92388 -0.382683 0
    outer loop
      vertex 3.8637 -1.03528 0
      vertex 3.4641 -2 7.99
      vertex 3.4641 -2 0
    endloop
  endfacet
  facet normal 0.130529 -0.991445 0
    outer loop
      vertex 0 -4 0
      vertex 1.03528 -3.8637 7.99
      vertex 0 -4 7.99
    endloop
  endfacet
  facet normal 0.130529 -0.991445 0
    outer loop
      vertex 1.03528 -3.8637 7.99
      vertex 0 -4 0
      vertex 1.03528 -3.8637 0
    endloop
  endfacet
  facet normal 0.382683 -0.92388 0
    outer loop
      vertex 1.03528 -3.8637 0
      vertex 2 -3.4641 7.99
      vertex 1.03528 -3.8637 7.99
    endloop
  endfacet
  facet normal 0.382683 -0.92388 0
    outer loop
      vertex 2 -3.4641 7.99
      vertex 1.03528 -3.8637 0
      vertex 2 -3.4641 0
    endloop
  endfacet
  facet normal -0.130529 -0.991445 0
    outer loop
      vertex -1.03528 -3.8637 0
      vertex 0 -4 7.99
      vertex -1.03528 -3.8637 7.99
    endloop
  endfacet
  facet normal -0.130529 -0.991445 -0
    outer loop
      vertex 0 -4 7.99
      vertex -1.03528 -3.8637 0
      vertex 0 -4 0
    endloop
  endfacet
  facet normal -0.991445 -0.130529 0
    outer loop
      vertex -3.8637 -1.03528 0
      vertex -4 0 7.99
      vertex -4 0 0
    endloop
  endfacet
  facet normal -0.991445 -0.130529 0
    outer loop
      vertex -4 0 7.99
      vertex -3.8637 -1.03528 0
      vertex -3.8637 -1.03528 7.99
    endloop
  endfacet
  facet normal 0 0 -1
    outer loop
      vertex 2.06246 -0.979555 0
      vertex 1.54856 0.516188 0
      vertex 2.04766 1.01528 0
    endloop
  endfacet
  facet normal 0 0 -1
    outer loop
      vertex 1.41432 -0.331413 0
      vertex 1.54856 0.516188 0
      vertex 2.06246 -0.979555 0
    endloop
  endfacet
  facet normal 0 0 -1
    outer loop
      vertex 1.54856 0.516188 0
      vertex 1.41432 -0.331413 0
      vertex 1.34374 0.114197 0
    endloop
  endfacet
  facet normal 0 0 -1
    outer loop
      vertex 2.06246 -0.979555 0
      vertex 4 0 0
      vertex 3.8637 -1.03528 0
    endloop
  endfacet
  facet normal 0 0 -1
    outer loop
      vertex 2.06246 -0.979555 0
      vertex 3.8637 -1.03528 0
      vertex 3.4641 -2 0
    endloop
  endfacet
  facet normal 0 0 -1
    outer loop
      vertex 2.04766 1.01528 0
      vertex 4 0 0
      vertex 2.06246 -0.979555 0
    endloop
  endfacet
  facet normal 0 0 -1
    outer loop
      vertex 1.99186 -1.15 0
      vertex 3.4641 -2 0
      vertex 2.82843 -2.82843 0
    endloop
  endfacet
  facet normal 0 0 -1
    outer loop
      vertex 4 0 0
      vertex 2.04766 1.01528 0
      vertex 3.8637 1.03528 0
    endloop
  endfacet
  facet normal -0 0 -1
    outer loop
      vertex 3.8637 1.03528 0
      vertex 2.04766 1.01528 0
      vertex 3.4641 2 0
    endloop
  endfacet
  facet normal 0 0 -1
    outer loop
      vertex 1.62635 -1.62635 0
      vertex 2.82843 -2.82843 0
      vertex 2 -3.4641 0
    endloop
  endfacet
  facet normal 0 0 -1
    outer loop
      vertex 3.4641 -2 0
      vertex 1.99186 -1.15 0
      vertex 2.06246 -0.979555 0
    endloop
  endfacet
  facet normal 0 0 -1
    outer loop
      vertex 2.82843 -2.82843 0
      vertex 1.62635 -1.62635 0
      vertex 1.99186 -1.15 0
    endloop
  endfacet
  facet normal 0 0 -1
    outer loop
      vertex 2 -3.4641 0
      vertex 1.15 -1.99186 0
      vertex 1.62635 -1.62635 0
    endloop
  endfacet
  facet normal 0 0 -1
    outer loop
      vertex 1.01528 -2.04766 0
      vertex 2 -3.4641 0
      vertex 1.03528 -3.8637 0
    endloop
  endfacet
  facet normal 0 0 -1
    outer loop
      vertex 2 -3.4641 0
      vertex 1.01528 -2.04766 0
      vertex 1.15 -1.99186 0
    endloop
  endfacet
  facet normal 0 0 -1
    outer loop
      vertex 0 -4 0
      vertex 1.01528 -2.04766 0
      vertex 1.03528 -3.8637 0
    endloop
  endfacet
  facet normal 0 0 -1
    outer loop
      vertex -0.979555 -2.06246 0
      vertex 1.01528 -2.04766 0
      vertex 0 -4 0
    endloop
  endfacet
  facet normal -0 0 -1
    outer loop
      vertex 1.01528 -2.04766 0
      vertex -0.979555 -2.06246 0
      vertex 0.516188 -1.54856 0
    endloop
  endfacet
  facet normal 0 -0 -1
    outer loop
      vertex -0.331413 -1.41432 0
      vertex 0.516188 -1.54856 0
      vertex -0.979555 -2.06246 0
    endloop
  endfacet
  facet normal 0 0 -1
    outer loop
      vertex 0.516188 -1.54856 0
      vertex -0.331413 -1.41432 0
      vertex 0.114197 -1.34374 0
    endloop
  endfacet
  facet normal 0 0 -1
    outer loop
      vertex -1.03528 -3.8637 0
      vertex -0.979555 -2.06246 0
      vertex 0 -4 0
    endloop
  endfacet
  facet normal 0 0 -1
    outer loop
      vertex -2 -3.4641 0
      vertex -0.979555 -2.06246 0
      vertex -1.03528 -3.8637 0
    endloop
  endfacet
  facet normal -0 0 -1
    outer loop
      vertex -0.979555 -2.06246 0
      vertex -2 -3.4641 0
      vertex -1.15 -1.99186 0
    endloop
  endfacet
  facet normal -0 0 -1
    outer loop
      vertex -1.15 -1.99186 0
      vertex -2 -3.4641 0
      vertex -1.62635 -1.62635 0
    endloop
  endfacet
  facet normal 0 0 -1
    outer loop
      vertex -2.82843 -2.82843 0
      vertex -1.62635 -1.62635 0
      vertex -2 -3.4641 0
    endloop
  endfacet
  facet normal -0 0 -1
    outer loop
      vertex -1.62635 -1.62635 0
      vertex -2.82843 -2.82843 0
      vertex -1.99186 -1.15 0
    endloop
  endfacet
  facet normal -0 0 -1
    outer loop
      vertex -1.99186 -1.15 0
      vertex -3.4641 -2 0
      vertex -2.04766 -1.01528 0
    endloop
  endfacet
  facet normal 0 0 -1
    outer loop
      vertex -3.4641 -2 0
      vertex -1.99186 -1.15 0
      vertex -2.82843 -2.82843 0
    endloop
  endfacet
  facet normal 0 0 -1
    outer loop
      vertex 1.99186 1.15 0
      vertex 3.4641 2 0
      vertex 2.04766 1.01528 0
    endloop
  endfacet
  facet normal -0 0 -1
    outer loop
      vertex 3.4641 2 0
      vertex 1.99186 1.15 0
      vertex 2.82843 2.82843 0
    endloop
  endfacet
  facet normal 0 0 -1
    outer loop
      vertex 1.62635 1.62635 0
      vertex 2.82843 2.82843 0
      vertex 1.99186 1.15 0
    endloop
  endfacet
  facet normal -0 0 -1
    outer loop
      vertex 2.82843 2.82843 0
      vertex 1.62635 1.62635 0
      vertex 2 3.4641 0
    endloop
  endfacet
  facet normal 0 0 -1
    outer loop
      vertex 1.15 1.99186 0
      vertex 2 3.4641 0
      vertex 1.62635 1.62635 0
    endloop
  endfacet
  facet normal 0 0 -1
    outer loop
      vertex 0.979555 2.06246 0
      vertex 2 3.4641 0
      vertex 1.15 1.99186 0
    endloop
  endfacet
  facet normal -0 0 -1
    outer loop
      vertex 2 3.4641 0
      vertex 0.979555 2.06246 0
      vertex 1.03528 3.8637 0
    endloop
  endfacet
  facet normal 0 0 -1
    outer loop
      vertex -0.516188 1.54856 0
      vertex 0.979555 2.06246 0
      vertex 0.331413 1.41432 0
    endloop
  endfacet
  facet normal 0 0 -1
    outer loop
      vertex 0.979555 2.06246 0
      vertex 0 4 0
      vertex 1.03528 3.8637 0
    endloop
  endfacet
  facet normal 0 0 -1
    outer loop
      vertex -0.516188 1.54856 0
      vertex 0.331413 1.41432 0
      vertex -0.114197 1.34374 0
    endloop
  endfacet
  facet normal 0 0 -1
    outer loop
      vertex 0.979555 2.06246 0
      vertex -0.516188 1.54856 0
      vertex -1.01528 2.04766 0
    endloop
  endfacet
  facet normal -0 0 -1
    outer loop
      vertex 0.979555 2.06246 0
      vertex -1.01528 2.04766 0
      vertex 0 4 0
    endloop
  endfacet
  facet normal 0 0 -1
    outer loop
      vertex -1.01528 2.04766 0
      vertex -1.03528 3.8637 0
      vertex 0 4 0
    endloop
  endfacet
  facet normal 0 0 -1
    outer loop
      vertex -2 3.4641 0
      vertex -1.01528 2.04766 0
      vertex -1.15 1.99186 0
    endloop
  endfacet
  facet normal 0 0 -1
    outer loop
      vertex -2 3.4641 0
      vertex -1.15 1.99186 0
      vertex -1.62635 1.62635 0
    endloop
  endfacet
  facet normal 0 0 -1
    outer loop
      vertex -2.82843 2.82843 0
      vertex -1.62635 1.62635 0
      vertex -1.99186 1.15 0
    endloop
  endfacet
  facet normal 0 0 -1
    outer loop
      vertex -1.01528 2.04766 0
      vertex -2 3.4641 0
      vertex -1.03528 3.8637 0
    endloop
  endfacet
  facet normal 0 0 -1
    outer loop
      vertex -3.4641 2 0
      vertex -1.99186 1.15 0
      vertex -2.06246 0.979555 0
    endloop
  endfacet
  facet normal 0 0 -1
    outer loop
      vertex -3.8637 -1.03528 0
      vertex -2.04766 -1.01528 0
      vertex -3.4641 -2 0
    endloop
  endfacet
  facet normal 0 0 -1
    outer loop
      vertex -1.62635 1.62635 0
      vertex -2.82843 2.82843 0
      vertex -2 3.4641 0
    endloop
  endfacet
  facet normal 0 0 -1
    outer loop
      vertex -4 0 0
      vertex -2.04766 -1.01528 0
      vertex -3.8637 -1.03528 0
    endloop
  endfacet
  facet normal 0 0 -1
    outer loop
      vertex -1.99186 1.15 0
      vertex -3.4641 2 0
      vertex -2.82843 2.82843 0
    endloop
  endfacet
  facet normal 0 0 -1
    outer loop
      vertex -2.04766 -1.01528 0
      vertex -4 0 0
      vertex -2.06246 0.979555 0
    endloop
  endfacet
  facet normal 0 0 -1
    outer loop
      vertex -2.06246 0.979555 0
      vertex -3.8637 1.03528 0
      vertex -3.4641 2 0
    endloop
  endfacet
  facet normal -0 0 -1
    outer loop
      vertex -2.06246 0.979555 0
      vertex -4 0 0
      vertex -3.8637 1.03528 0
    endloop
  endfacet
  facet normal 0 0 -1
    outer loop
      vertex -1.54856 -0.516188 0
      vertex -1.41432 0.331413 0
      vertex -1.34374 -0.114197 0
    endloop
  endfacet
  facet normal 0 0 -1
    outer loop
      vertex -2.06246 0.979555 0
      vertex -1.54856 -0.516188 0
      vertex -2.04766 -1.01528 0
    endloop
  endfacet
  facet normal 0 0 -1
    outer loop
      vertex -1.54856 -0.516188 0
      vertex -2.06246 0.979555 0
      vertex -1.41432 0.331413 0
    endloop
  endfacet
  facet normal 0 0 1
    outer loop
      vertex -1.41432 0.331413 7.99
      vertex -1.54856 -0.516188 7.99
      vertex -1.34374 -0.114197 7.99
    endloop
  endfacet
  facet normal 0 0 1
    outer loop
      vertex -2.06246 0.979555 7.99
      vertex -1.54856 -0.516188 7.99
      vertex -1.41432 0.331413 7.99
    endloop
  endfacet
  facet normal 0 0 1
    outer loop
      vertex -1.54856 -0.516188 7.99
      vertex -2.06246 0.979555 7.99
      vertex -2.04766 -1.01528 7.99
    endloop
  endfacet
  facet normal -0 0 1
    outer loop
      vertex 2.04766 1.01528 7.99
      vertex 4 0 7.99
      vertex 3.8637 1.03528 7.99
    endloop
  endfacet
  facet normal 0 0 1
    outer loop
      vertex 2.04766 1.01528 7.99
      vertex 3.8637 1.03528 7.99
      vertex 3.4641 2 7.99
    endloop
  endfacet
  facet normal 0 0 1
    outer loop
      vertex 4 0 7.99
      vertex 2.04766 1.01528 7.99
      vertex 2.06246 -0.979555 7.99
    endloop
  endfacet
  facet normal 0 0 1
    outer loop
      vertex 1.99186 1.15 7.99
      vertex 3.4641 2 7.99
      vertex 2.82843 2.82843 7.99
    endloop
  endfacet
  facet normal 0 0 1
    outer loop
      vertex 4 0 7.99
      vertex 2.06246 -0.979555 7.99
      vertex 3.8637 -1.03528 7.99
    endloop
  endfacet
  facet normal -0 0 1
    outer loop
      vertex 1.99186 -1.15 7.99
      vertex 3.4641 -2 7.99
      vertex 2.06246 -0.979555 7.99
    endloop
  endfacet
  facet normal 0 0 1
    outer loop
      vertex 3.8637 -1.03528 7.99
      vertex 2.06246 -0.979555 7.99
      vertex 3.4641 -2 7.99
    endloop
  endfacet
  facet normal 0 0 1
    outer loop
      vertex 1.62635 1.62635 7.99
      vertex 2.82843 2.82843 7.99
      vertex 2 3.4641 7.99
    endloop
  endfacet
  facet normal 0 0 1
    outer loop
      vertex 3.4641 2 7.99
      vertex 1.99186 1.15 7.99
      vertex 2.04766 1.01528 7.99
    endloop
  endfacet
  facet normal 0 0 1
    outer loop
      vertex 2.82843 2.82843 7.99
      vertex 1.62635 1.62635 7.99
      vertex 1.99186 1.15 7.99
    endloop
  endfacet
  facet normal 0 0 1
    outer loop
      vertex 2 3.4641 7.99
      vertex 1.15 1.99186 7.99
      vertex 1.62635 1.62635 7.99
    endloop
  endfacet
  facet normal 0 0 1
    outer loop
      vertex 0.979555 2.06246 7.99
      vertex 2 3.4641 7.99
      vertex 1.03528 3.8637 7.99
    endloop
  endfacet
  facet normal 0 0 1
    outer loop
      vertex 2 3.4641 7.99
      vertex 0.979555 2.06246 7.99
      vertex 1.15 1.99186 7.99
    endloop
  endfacet
  facet normal 0 0 1
    outer loop
      vertex 0 4 7.99
      vertex 0.979555 2.06246 7.99
      vertex 1.03528 3.8637 7.99
    endloop
  endfacet
  facet normal 0 0 1
    outer loop
      vertex -1.01528 2.04766 7.99
      vertex 0.979555 2.06246 7.99
      vertex 0 4 7.99
    endloop
  endfacet
  facet normal 0 -0 1
    outer loop
      vertex -0.516188 1.54856 7.99
      vertex 0.979555 2.06246 7.99
      vertex -1.01528 2.04766 7.99
    endloop
  endfacet
  facet normal 0 0 1
    outer loop
      vertex 0.331413 1.41432 7.99
      vertex -0.516188 1.54856 7.99
      vertex -0.114197 1.34374 7.99
    endloop
  endfacet
  facet normal 0 0 1
    outer loop
      vertex 0.979555 2.06246 7.99
      vertex -0.516188 1.54856 7.99
      vertex 0.331413 1.41432 7.99
    endloop
  endfacet
  facet normal -0 0 1
    outer loop
      vertex -1.03528 3.8637 7.99
      vertex -1.01528 2.04766 7.99
      vertex 0 4 7.99
    endloop
  endfacet
  facet normal -0 0 1
    outer loop
      vertex -2 3.4641 7.99
      vertex -1.01528 2.04766 7.99
      vertex -1.03528 3.8637 7.99
    endloop
  endfacet
  facet normal 0 0 1
    outer loop
      vertex -1.01528 2.04766 7.99
      vertex -2 3.4641 7.99
      vertex -1.15 1.99186 7.99
    endloop
  endfacet
  facet normal 0 0 1
    outer loop
      vertex -1.15 1.99186 7.99
      vertex -2 3.4641 7.99
      vertex -1.62635 1.62635 7.99
    endloop
  endfacet
  facet normal -0 0 1
    outer loop
      vertex -2.82843 2.82843 7.99
      vertex -1.62635 1.62635 7.99
      vertex -2 3.4641 7.99
    endloop
  endfacet
  facet normal 0 0 1
    outer loop
      vertex -1.62635 1.62635 7.99
      vertex -2.82843 2.82843 7.99
      vertex -1.99186 1.15 7.99
    endloop
  endfacet
  facet normal -0 0 1
    outer loop
      vertex -3.4641 2 7.99
      vertex -1.99186 1.15 7.99
      vertex -2.82843 2.82843 7.99
    endloop
  endfacet
  facet normal 0 0 1
    outer loop
      vertex 3.4641 -2 7.99
      vertex 1.99186 -1.15 7.99
      vertex 2.82843 -2.82843 7.99
    endloop
  endfacet
  facet normal -0 0 1
    outer loop
      vertex 1.62635 -1.62635 7.99
      vertex 2.82843 -2.82843 7.99
      vertex 1.99186 -1.15 7.99
    endloop
  endfacet
  facet normal 0 0 1
    outer loop
      vertex 2.82843 -2.82843 7.99
      vertex 1.62635 -1.62635 7.99
      vertex 2 -3.4641 7.99
    endloop
  endfacet
  facet normal -0 0 1
    outer loop
      vertex 1.15 -1.99186 7.99
      vertex 2 -3.4641 7.99
      vertex 1.62635 -1.62635 7.99
    endloop
  endfacet
  facet normal -0 0 1
    outer loop
      vertex 1.01528 -2.04766 7.99
      vertex 2 -3.4641 7.99
      vertex 1.15 -1.99186 7.99
    endloop
  endfacet
  facet normal 0 0 1
    outer loop
      vertex 2 -3.4641 7.99
      vertex 1.01528 -2.04766 7.99
      vertex 1.03528 -3.8637 7.99
    endloop
  endfacet
  facet normal 0 0 1
    outer loop
      vertex -0.979555 -2.06246 7.99
      vertex 1.01528 -2.04766 7.99
      vertex 0.516188 -1.54856 7.99
    endloop
  endfacet
  facet normal -0 0 1
    outer loop
      vertex -0.331413 -1.41432 7.99
      vertex 0.516188 -1.54856 7.99
      vertex 0.114197 -1.34374 7.99
    endloop
  endfacet
  facet normal 0 0 1
    outer loop
      vertex 1.01528 -2.04766 7.99
      vertex 0 -4 7.99
      vertex 1.03528 -3.8637 7.99
    endloop
  endfacet
  facet normal 0 0 1
    outer loop
      vertex 0.516188 -1.54856 7.99
      vertex -0.331413 -1.41432 7.99
      vertex -0.979555 -2.06246 7.99
    endloop
  endfacet
  facet normal 0 0 1
    outer loop
      vertex 1.01528 -2.04766 7.99
      vertex -0.979555 -2.06246 7.99
      vertex 0 -4 7.99
    endloop
  endfacet
  facet normal 0 0 1
    outer loop
      vertex -0.979555 -2.06246 7.99
      vertex -1.03528 -3.8637 7.99
      vertex 0 -4 7.99
    endloop
  endfacet
  facet normal 0 0 1
    outer loop
      vertex -2 -3.4641 7.99
      vertex -0.979555 -2.06246 7.99
      vertex -1.15 -1.99186 7.99
    endloop
  endfacet
  facet normal 0 0 1
    outer loop
      vertex -2 -3.4641 7.99
      vertex -1.15 -1.99186 7.99
      vertex -1.62635 -1.62635 7.99
    endloop
  endfacet
  facet normal 0 0 1
    outer loop
      vertex -2.82843 -2.82843 7.99
      vertex -1.62635 -1.62635 7.99
      vertex -1.99186 -1.15 7.99
    endloop
  endfacet
  facet normal 0 0 1
    outer loop
      vertex -0.979555 -2.06246 7.99
      vertex -2 -3.4641 7.99
      vertex -1.03528 -3.8637 7.99
    endloop
  endfacet
  facet normal 0 0 1
    outer loop
      vertex -3.4641 -2 7.99
      vertex -1.99186 -1.15 7.99
      vertex -2.04766 -1.01528 7.99
    endloop
  endfacet
  facet normal 0 0 1
    outer loop
      vertex -1.99186 1.15 7.99
      vertex -3.4641 2 7.99
      vertex -2.06246 0.979555 7.99
    endloop
  endfacet
  facet normal -0 0 1
    outer loop
      vertex -3.8637 1.03528 7.99
      vertex -2.06246 0.979555 7.99
      vertex -3.4641 2 7.99
    endloop
  endfacet
  facet normal 0 0 1
    outer loop
      vertex -1.62635 -1.62635 7.99
      vertex -2.82843 -2.82843 7.99
      vertex -2 -3.4641 7.99
    endloop
  endfacet
  facet normal 0 0 1
    outer loop
      vertex -4 0 7.99
      vertex -2.06246 0.979555 7.99
      vertex -3.8637 1.03528 7.99
    endloop
  endfacet
  facet normal 0 0 1
    outer loop
      vertex -1.99186 -1.15 7.99
      vertex -3.4641 -2 7.99
      vertex -2.82843 -2.82843 7.99
    endloop
  endfacet
  facet normal 0 0 1
    outer loop
      vertex -2.06246 0.979555 7.99
      vertex -4 0 7.99
      vertex -2.04766 -1.01528 7.99
    endloop
  endfacet
  facet normal 0 0 1
    outer loop
      vertex -2.04766 -1.01528 7.99
      vertex -3.8637 -1.03528 7.99
      vertex -3.4641 -2 7.99
    endloop
  endfacet
  facet normal 0 0 1
    outer loop
      vertex -2.04766 -1.01528 7.99
      vertex -4 0 7.99
      vertex -3.8637 -1.03528 7.99
    endloop
  endfacet
  facet normal -0 0 1
    outer loop
      vertex 1.54856 0.516188 7.99
      vertex 2.06246 -0.979555 7.99
      vertex 2.04766 1.01528 7.99
    endloop
  endfacet
  facet normal 0 0 1
    outer loop
      vertex 1.54856 0.516188 7.99
      vertex 1.41432 -0.331413 7.99
      vertex 2.06246 -0.979555 7.99
    endloop
  endfacet
  facet normal 0 -0 1
    outer loop
      vertex 1.41432 -0.331413 7.99
      vertex 1.54856 0.516188 7.99
      vertex 1.34374 0.114197 7.99
    endloop
  endfacet
  facet normal -0.92388 0.382683 0
    outer loop
      vertex -3.8637 1.03528 0
      vertex -3.4641 2 7.99
      vertex -3.4641 2 0
    endloop
  endfacet
  facet normal -0.92388 0.382683 0
    outer loop
      vertex -3.4641 2 7.99
      vertex -3.8637 1.03528 0
      vertex -3.8637 1.03528 7.99
    endloop
  endfacet
  facet normal 0.991445 -0.130529 0
    outer loop
      vertex 3.8637 -1.03528 7.99
      vertex 4 0 0
      vertex 4 0 7.99
    endloop
  endfacet
  facet normal 0.991445 -0.130529 0
    outer loop
      vertex 4 0 0
      vertex 3.8637 -1.03528 7.99
      vertex 3.8637 -1.03528 0
    endloop
  endfacet
  facet normal 0.793356 -0.608757 0
    outer loop
      vertex 2.82843 -2.82843 7.99
      vertex 3.4641 -2 0
      vertex 3.4641 -2 7.99
    endloop
  endfacet
  facet normal 0.793356 -0.608757 0
    outer loop
      vertex 3.4641 -2 0
      vertex 2.82843 -2.82843 7.99
      vertex 2.82843 -2.82843 0
    endloop
  endfacet
endsolid OpenSCAD_Model
