solid OpenSCAD_Model
  facet normal -1 0 0
    outer loop
      vertex 0 0 3.2
      vertex 0 16 9.6
      vertex 0 16 3.2
    endloop
  endfacet
  facet normal -1 -0 0
    outer loop
      vertex 0 16 9.6
      vertex 0 0 3.2
      vertex 0 0 9.6
    endloop
  endfacet
  facet normal 1 -0 0
    outer loop
      vertex 16 0 9.6
      vertex 16 16 3.2
      vertex 16 16 9.6
    endloop
  endfacet
  facet normal 1 0 0
    outer loop
      vertex 16 16 3.2
      vertex 16 0 9.6
      vertex 16 0 3.2
    endloop
  endfacet
  facet normal 0 1 -0
    outer loop
      vertex 16 16 3.2
      vertex 0 16 9.6
      vertex 16 16 9.6
    endloop
  endfacet
  facet normal 0 1 0
    outer loop
      vertex 0 16 9.6
      vertex 16 16 3.2
      vertex 0 16 3.2
    endloop
  endfacet
  facet normal 0 0 -1
    outer loop
      vertex 15.9 0.0999994 0
      vertex 9.35 8 0
      vertex 15.9 15.9 0
    endloop
  endfacet
  facet normal 0 0 -1
    outer loop
      vertex 15.9 0.0999994 0
      vertex 6.65 8 0
      vertex 9.35 8 0
    endloop
  endfacet
  facet normal 0 0 -1
    outer loop
      vertex 0.0999994 0.0999994 0
      vertex 6.65 8 0
      vertex 15.9 0.0999994 0
    endloop
  endfacet
  facet normal 0 0 -1
    outer loop
      vertex 0.0999994 15.9 0
      vertex 6.65 8 0
      vertex 0.0999994 0.0999994 0
    endloop
  endfacet
  facet normal 0 0 -1
    outer loop
      vertex 6.65 8 0
      vertex 0.0999994 15.9 0
      vertex 6.65 15.9 0
    endloop
  endfacet
  facet normal -0 0 -1
    outer loop
      vertex 15.9 15.9 0
      vertex 9.35 8 0
      vertex 9.35 15.9 0
    endloop
  endfacet
  facet normal -0 0 1
    outer loop
      vertex 6.65 16 0
      vertex 9.35 15.9 0
      vertex 9.35 16 0
    endloop
  endfacet
  facet normal 0 0 1
    outer loop
      vertex 9.35 15.9 0
      vertex 6.65 16 0
      vertex 6.65 15.9 0
    endloop
  endfacet
  facet normal 0 -1 0
    outer loop
      vertex 0 0 3.2
      vertex 16 0 9.6
      vertex 0 0 9.6
    endloop
  endfacet
  facet normal 0 -1 -0
    outer loop
      vertex 16 0 9.6
      vertex 0 0 3.2
      vertex 16 0 3.2
    endloop
  endfacet
  facet normal -0 0 1
    outer loop
      vertex 0 16 9.6
      vertex 16 0 9.6
      vertex 16 16 9.6
    endloop
  endfacet
  facet normal 0 0 1
    outer loop
      vertex 16 0 9.6
      vertex 0 16 9.6
      vertex 0 0 9.6
    endloop
  endfacet
  facet normal 0 0 -1
    outer loop
      vertex 16 0 3.2
      vertex 15.9 0.0999994 3.2
      vertex 16 16 3.2
    endloop
  endfacet
  facet normal 0 0 -1
    outer loop
      vertex 16 0 3.2
      vertex 0.0999994 0.0999994 3.2
      vertex 15.9 0.0999994 3.2
    endloop
  endfacet
  facet normal -0 0 -1
    outer loop
      vertex 0.0999994 0.0999994 3.2
      vertex 0 0 3.2
      vertex 0.0999994 15.9 3.2
    endloop
  endfacet
  facet normal 0 0 -1
    outer loop
      vertex 0 0 3.2
      vertex 0.0999994 0.0999994 3.2
      vertex 16 0 3.2
    endloop
  endfacet
  facet normal 0 0 -1
    outer loop
      vertex 15.9 15.9 3.2
      vertex 16 16 3.2
      vertex 15.9 0.0999994 3.2
    endloop
  endfacet
  facet normal 0 0 -1
    outer loop
      vertex 0.0999994 15.9 3.2
      vertex 16 16 3.2
      vertex 15.9 15.9 3.2
    endloop
  endfacet
  facet normal 0 0 -1
    outer loop
      vertex 0.0999994 15.9 3.2
      vertex 0 16 3.2
      vertex 16 16 3.2
    endloop
  endfacet
  facet normal 0 0 -1
    outer loop
      vertex 0 16 3.2
      vertex 0.0999994 15.9 3.2
      vertex 0 0 3.2
    endloop
  endfacet
  facet normal 0 -1 0
    outer loop
      vertex 0.0999994 0.0999994 0
      vertex 15.9 0.0999994 3.2
      vertex 0.0999994 0.0999994 3.2
    endloop
  endfacet
  facet normal 0 -1 -0
    outer loop
      vertex 15.9 0.0999994 3.2
      vertex 0.0999994 0.0999994 0
      vertex 15.9 0.0999994 0
    endloop
  endfacet
  facet normal 0 1 0
    outer loop
      vertex 9.35 15.9 0
      vertex 15.9 15.9 3.2
      vertex 15.9 15.9 0
    endloop
  endfacet
  facet normal 0 1 0
    outer loop
      vertex 15.9 15.9 3.2
      vertex 9.35 15.9 0
      vertex 0.0999994 15.9 3.2
    endloop
  endfacet
  facet normal 0 1 -0
    outer loop
      vertex 6.65 15.9 0
      vertex 0.0999994 15.9 3.2
      vertex 9.35 15.9 0
    endloop
  endfacet
  facet normal 0 1 0
    outer loop
      vertex 0.0999994 15.9 3.2
      vertex 6.65 15.9 0
      vertex 0.0999994 15.9 0
    endloop
  endfacet
  facet normal -1 0 0
    outer loop
      vertex 0.0999994 0.0999994 0
      vertex 0.0999994 15.9 3.2
      vertex 0.0999994 15.9 0
    endloop
  endfacet
  facet normal -1 -0 0
    outer loop
      vertex 0.0999994 15.9 3.2
      vertex 0.0999994 0.0999994 0
      vertex 0.0999994 0.0999994 3.2
    endloop
  endfacet
  facet normal 1 -0 0
    outer loop
      vertex 15.9 0.0999994 3.2
      vertex 15.9 15.9 0
      vertex 15.9 15.9 3.2
    endloop
  endfacet
  facet normal 1 0 0
    outer loop
      vertex 15.9 15.9 0
      vertex 15.9 0.0999994 3.2
      vertex 15.9 0.0999994 0
    endloop
  endfacet
  facet normal -0.923875 -0.382694 0
    outer loop
      vertex 4.6 4 0.599999
      vertex 4.42426 4.42426 5.1
      vertex 4.42426 4.42426 0.599999
    endloop
  endfacet
  facet normal -0.923875 -0.382694 0
    outer loop
      vertex 4.42426 4.42426 5.1
      vertex 4.6 4 0.599999
      vertex 4.6 4 5.1
    endloop
  endfacet
  facet normal 0.382694 -0.923875 0
    outer loop
      vertex 3.57574 4.42426 0.599999
      vertex 4 4.6 5.1
      vertex 3.57574 4.42426 5.1
    endloop
  endfacet
  facet normal 0.382694 -0.923875 0
    outer loop
      vertex 4 4.6 5.1
      vertex 3.57574 4.42426 0.599999
      vertex 4 4.6 0.599999
    endloop
  endfacet
  facet normal -0.382694 -0.923875 0
    outer loop
      vertex 4 4.6 0.599999
      vertex 4.42426 4.42426 5.1
      vertex 4 4.6 5.1
    endloop
  endfacet
  facet normal -0.382694 -0.923875 -0
    outer loop
      vertex 4.42426 4.42426 5.1
      vertex 4 4.6 0.599999
      vertex 4.42426 4.42426 0.599999
    endloop
  endfacet
  facet normal 0 0 -1
    outer loop
      vertex 4.42426 3.57574 5.1
      vertex 4.42426 4.42426 5.1
      vertex 4.6 4 5.1
    endloop
  endfacet
  facet normal 0 0 -1
    outer loop
      vertex 4 3.4 5.1
      vertex 4.42426 4.42426 5.1
      vertex 4.42426 3.57574 5.1
    endloop
  endfacet
  facet normal 0 0 -1
    outer loop
      vertex 4 3.4 5.1
      vertex 4 4.6 5.1
      vertex 4.42426 4.42426 5.1
    endloop
  endfacet
  facet normal 0 0 -1
    outer loop
      vertex 3.57574 3.57574 5.1
      vertex 4 4.6 5.1
      vertex 4 3.4 5.1
    endloop
  endfacet
  facet normal 0 0 -1
    outer loop
      vertex 3.57574 3.57574 5.1
      vertex 3.57574 4.42426 5.1
      vertex 4 4.6 5.1
    endloop
  endfacet
  facet normal 0 -0 -1
    outer loop
      vertex 3.57574 4.42426 5.1
      vertex 3.57574 3.57574 5.1
      vertex 3.4 4 5.1
    endloop
  endfacet
  facet normal 0.923875 -0.382694 0
    outer loop
      vertex 3.4 4 5.1
      vertex 3.57574 4.42426 0.599999
      vertex 3.57574 4.42426 5.1
    endloop
  endfacet
  facet normal 0.923875 -0.382694 0
    outer loop
      vertex 3.57574 4.42426 0.599999
      vertex 3.4 4 5.1
      vertex 3.4 4 0.599999
    endloop
  endfacet
  facet normal 0 0 1
    outer loop
      vertex 4.42426 4.42426 0.599999
      vertex 4.42426 3.57574 0.599999
      vertex 4.6 4 0.599999
    endloop
  endfacet
  facet normal 0 0 1
    outer loop
      vertex 4 4.6 0.599999
      vertex 4.42426 3.57574 0.599999
      vertex 4.42426 4.42426 0.599999
    endloop
  endfacet
  facet normal 0 0 1
    outer loop
      vertex 4 4.6 0.599999
      vertex 4 3.4 0.599999
      vertex 4.42426 3.57574 0.599999
    endloop
  endfacet
  facet normal -0 0 1
    outer loop
      vertex 3.57574 4.42426 0.599999
      vertex 4 3.4 0.599999
      vertex 4 4.6 0.599999
    endloop
  endfacet
  facet normal 0 0 1
    outer loop
      vertex 3.57574 4.42426 0.599999
      vertex 3.57574 3.57574 0.599999
      vertex 4 3.4 0.599999
    endloop
  endfacet
  facet normal 0 -0 1
    outer loop
      vertex 3.57574 3.57574 0.599999
      vertex 3.57574 4.42426 0.599999
      vertex 3.4 4 0.599999
    endloop
  endfacet
  facet normal -0.923875 0.382694 0
    outer loop
      vertex 4.42426 3.57574 0.599999
      vertex 4.6 4 5.1
      vertex 4.6 4 0.599999
    endloop
  endfacet
  facet normal -0.923875 0.382694 0
    outer loop
      vertex 4.6 4 5.1
      vertex 4.42426 3.57574 0.599999
      vertex 4.42426 3.57574 5.1
    endloop
  endfacet
  facet normal 0.382694 0.923875 -0
    outer loop
      vertex 4 3.4 0.599999
      vertex 3.57574 3.57574 5.1
      vertex 4 3.4 5.1
    endloop
  endfacet
  facet normal 0.382694 0.923875 0
    outer loop
      vertex 3.57574 3.57574 5.1
      vertex 4 3.4 0.599999
      vertex 3.57574 3.57574 0.599999
    endloop
  endfacet
  facet normal 0.923875 0.382694 0
    outer loop
      vertex 3.57574 3.57574 5.1
      vertex 3.4 4 0.599999
      vertex 3.4 4 5.1
    endloop
  endfacet
  facet normal 0.923875 0.382694 0
    outer loop
      vertex 3.4 4 0.599999
      vertex 3.57574 3.57574 5.1
      vertex 3.57574 3.57574 0.599999
    endloop
  endfacet
  facet normal -0.382694 0.923875 0
    outer loop
      vertex 4.42426 3.57574 0.599999
      vertex 4 3.4 5.1
      vertex 4.42426 3.57574 5.1
    endloop
  endfacet
  facet normal -0.382694 0.923875 0
    outer loop
      vertex 4 3.4 5.1
      vertex 4.42426 3.57574 0.599999
      vertex 4 3.4 0.599999
    endloop
  endfacet
  facet normal -0.923888 -0.382663 0
    outer loop
      vertex 4.6 12 0.599999
      vertex 4.42426 12.4243 5.1
      vertex 4.42426 12.4243 0.599999
    endloop
  endfacet
  facet normal -0.923888 -0.382663 0
    outer loop
      vertex 4.42426 12.4243 5.1
      vertex 4.6 12 0.599999
      vertex 4.6 12 5.1
    endloop
  endfacet
  facet normal 0.38262 -0.923906 0
    outer loop
      vertex 3.57574 12.4243 0.599999
      vertex 4 12.6 5.1
      vertex 3.57574 12.4243 5.1
    endloop
  endfacet
  facet normal 0.38262 -0.923906 0
    outer loop
      vertex 4 12.6 5.1
      vertex 3.57574 12.4243 0.599999
      vertex 4 12.6 0.599999
    endloop
  endfacet
  facet normal -0.38262 -0.923906 0
    outer loop
      vertex 4 12.6 0.599999
      vertex 4.42426 12.4243 5.1
      vertex 4 12.6 5.1
    endloop
  endfacet
  facet normal -0.38262 -0.923906 -0
    outer loop
      vertex 4.42426 12.4243 5.1
      vertex 4 12.6 0.599999
      vertex 4.42426 12.4243 0.599999
    endloop
  endfacet
  facet normal 0 0 -1
    outer loop
      vertex 4.42426 11.5757 5.1
      vertex 4.42426 12.4243 5.1
      vertex 4.6 12 5.1
    endloop
  endfacet
  facet normal 0 0 -1
    outer loop
      vertex 4 11.4 5.1
      vertex 4.42426 12.4243 5.1
      vertex 4.42426 11.5757 5.1
    endloop
  endfacet
  facet normal 0 0 -1
    outer loop
      vertex 4 11.4 5.1
      vertex 4 12.6 5.1
      vertex 4.42426 12.4243 5.1
    endloop
  endfacet
  facet normal 0 0 -1
    outer loop
      vertex 3.57574 11.5757 5.1
      vertex 4 12.6 5.1
      vertex 4 11.4 5.1
    endloop
  endfacet
  facet normal 0 0 -1
    outer loop
      vertex 3.57574 11.5757 5.1
      vertex 3.57574 12.4243 5.1
      vertex 4 12.6 5.1
    endloop
  endfacet
  facet normal 0 -0 -1
    outer loop
      vertex 3.57574 12.4243 5.1
      vertex 3.57574 11.5757 5.1
      vertex 3.4 12 5.1
    endloop
  endfacet
  facet normal 0.923888 -0.382663 0
    outer loop
      vertex 3.4 12 5.1
      vertex 3.57574 12.4243 0.599999
      vertex 3.57574 12.4243 5.1
    endloop
  endfacet
  facet normal 0.923888 -0.382663 0
    outer loop
      vertex 3.57574 12.4243 0.599999
      vertex 3.4 12 5.1
      vertex 3.4 12 0.599999
    endloop
  endfacet
  facet normal 0 0 1
    outer loop
      vertex 4.42426 12.4243 0.599999
      vertex 4.42426 11.5757 0.599999
      vertex 4.6 12 0.599999
    endloop
  endfacet
  facet normal 0 0 1
    outer loop
      vertex 4 12.6 0.599999
      vertex 4.42426 11.5757 0.599999
      vertex 4.42426 12.4243 0.599999
    endloop
  endfacet
  facet normal 0 0 1
    outer loop
      vertex 4 12.6 0.599999
      vertex 4 11.4 0.599999
      vertex 4.42426 11.5757 0.599999
    endloop
  endfacet
  facet normal -0 0 1
    outer loop
      vertex 3.57574 12.4243 0.599999
      vertex 4 11.4 0.599999
      vertex 4 12.6 0.599999
    endloop
  endfacet
  facet normal 0 0 1
    outer loop
      vertex 3.57574 12.4243 0.599999
      vertex 3.57574 11.5757 0.599999
      vertex 4 11.4 0.599999
    endloop
  endfacet
  facet normal 0 -0 1
    outer loop
      vertex 3.57574 11.5757 0.599999
      vertex 3.57574 12.4243 0.599999
      vertex 3.4 12 0.599999
    endloop
  endfacet
  facet normal -0.923888 0.382663 0
    outer loop
      vertex 4.42426 11.5757 0.599999
      vertex 4.6 12 5.1
      vertex 4.6 12 0.599999
    endloop
  endfacet
  facet normal -0.923888 0.382663 0
    outer loop
      vertex 4.6 12 5.1
      vertex 4.42426 11.5757 0.599999
      vertex 4.42426 11.5757 5.1
    endloop
  endfacet
  facet normal 0.38262 0.923906 -0
    outer loop
      vertex 4 11.4 0.599999
      vertex 3.57574 11.5757 5.1
      vertex 4 11.4 5.1
    endloop
  endfacet
  facet normal 0.38262 0.923906 0
    outer loop
      vertex 3.57574 11.5757 5.1
      vertex 4 11.4 0.599999
      vertex 3.57574 11.5757 0.599999
    endloop
  endfacet
  facet normal 0.923888 0.382663 0
    outer loop
      vertex 3.57574 11.5757 5.1
      vertex 3.4 12 0.599999
      vertex 3.4 12 5.1
    endloop
  endfacet
  facet normal 0.923888 0.382663 0
    outer loop
      vertex 3.4 12 0.599999
      vertex 3.57574 11.5757 5.1
      vertex 3.57574 11.5757 0.599999
    endloop
  endfacet
  facet normal -0.38262 0.923906 0
    outer loop
      vertex 4.42426 11.5757 0.599999
      vertex 4 11.4 5.1
      vertex 4.42426 11.5757 5.1
    endloop
  endfacet
  facet normal -0.38262 0.923906 0
    outer loop
      vertex 4 11.4 5.1
      vertex 4.42426 11.5757 0.599999
      vertex 4 11.4 0.599999
    endloop
  endfacet
  facet normal -0.923906 -0.38262 0
    outer loop
      vertex 12.6 4 0.599999
      vertex 12.4243 4.42426 5.1
      vertex 12.4243 4.42426 0.599999
    endloop
  endfacet
  facet normal -0.923906 -0.38262 0
    outer loop
      vertex 12.4243 4.42426 5.1
      vertex 12.6 4 0.599999
      vertex 12.6 4 5.1
    endloop
  endfacet
  facet normal 0.382663 -0.923888 0
    outer loop
      vertex 11.5757 4.42426 0.599999
      vertex 12 4.6 5.1
      vertex 11.5757 4.42426 5.1
    endloop
  endfacet
  facet normal 0.382663 -0.923888 0
    outer loop
      vertex 12 4.6 5.1
      vertex 11.5757 4.42426 0.599999
      vertex 12 4.6 0.599999
    endloop
  endfacet
  facet normal -0.382663 -0.923888 0
    outer loop
      vertex 12 4.6 0.599999
      vertex 12.4243 4.42426 5.1
      vertex 12 4.6 5.1
    endloop
  endfacet
  facet normal -0.382663 -0.923888 -0
    outer loop
      vertex 12.4243 4.42426 5.1
      vertex 12 4.6 0.599999
      vertex 12.4243 4.42426 0.599999
    endloop
  endfacet
  facet normal 0 0 -1
    outer loop
      vertex 12.4243 3.57574 5.1
      vertex 12.4243 4.42426 5.1
      vertex 12.6 4 5.1
    endloop
  endfacet
  facet normal 0 0 -1
    outer loop
      vertex 12 3.4 5.1
      vertex 12.4243 4.42426 5.1
      vertex 12.4243 3.57574 5.1
    endloop
  endfacet
  facet normal 0 0 -1
    outer loop
      vertex 12 3.4 5.1
      vertex 12 4.6 5.1
      vertex 12.4243 4.42426 5.1
    endloop
  endfacet
  facet normal 0 0 -1
    outer loop
      vertex 11.5757 3.57574 5.1
      vertex 12 4.6 5.1
      vertex 12 3.4 5.1
    endloop
  endfacet
  facet normal 0 0 -1
    outer loop
      vertex 11.5757 3.57574 5.1
      vertex 11.5757 4.42426 5.1
      vertex 12 4.6 5.1
    endloop
  endfacet
  facet normal 0 -0 -1
    outer loop
      vertex 11.5757 4.42426 5.1
      vertex 11.5757 3.57574 5.1
      vertex 11.4 4 5.1
    endloop
  endfacet
  facet normal 0.923906 -0.38262 0
    outer loop
      vertex 11.4 4 5.1
      vertex 11.5757 4.42426 0.599999
      vertex 11.5757 4.42426 5.1
    endloop
  endfacet
  facet normal 0.923906 -0.38262 0
    outer loop
      vertex 11.5757 4.42426 0.599999
      vertex 11.4 4 5.1
      vertex 11.4 4 0.599999
    endloop
  endfacet
  facet normal 0 0 1
    outer loop
      vertex 12.4243 4.42426 0.599999
      vertex 12.4243 3.57574 0.599999
      vertex 12.6 4 0.599999
    endloop
  endfacet
  facet normal 0 0 1
    outer loop
      vertex 12 4.6 0.599999
      vertex 12.4243 3.57574 0.599999
      vertex 12.4243 4.42426 0.599999
    endloop
  endfacet
  facet normal 0 0 1
    outer loop
      vertex 12 4.6 0.599999
      vertex 12 3.4 0.599999
      vertex 12.4243 3.57574 0.599999
    endloop
  endfacet
  facet normal -0 0 1
    outer loop
      vertex 11.5757 4.42426 0.599999
      vertex 12 3.4 0.599999
      vertex 12 4.6 0.599999
    endloop
  endfacet
  facet normal 0 0 1
    outer loop
      vertex 11.5757 4.42426 0.599999
      vertex 11.5757 3.57574 0.599999
      vertex 12 3.4 0.599999
    endloop
  endfacet
  facet normal 0 -0 1
    outer loop
      vertex 11.5757 3.57574 0.599999
      vertex 11.5757 4.42426 0.599999
      vertex 11.4 4 0.599999
    endloop
  endfacet
  facet normal -0.923906 0.38262 0
    outer loop
      vertex 12.4243 3.57574 0.599999
      vertex 12.6 4 5.1
      vertex 12.6 4 0.599999
    endloop
  endfacet
  facet normal -0.923906 0.38262 0
    outer loop
      vertex 12.6 4 5.1
      vertex 12.4243 3.57574 0.599999
      vertex 12.4243 3.57574 5.1
    endloop
  endfacet
  facet normal 0.382663 0.923888 -0
    outer loop
      vertex 12 3.4 0.599999
      vertex 11.5757 3.57574 5.1
      vertex 12 3.4 5.1
    endloop
  endfacet
  facet normal 0.382663 0.923888 0
    outer loop
      vertex 11.5757 3.57574 5.1
      vertex 12 3.4 0.599999
      vertex 11.5757 3.57574 0.599999
    endloop
  endfacet
  facet normal 0.923906 0.38262 0
    outer loop
      vertex 11.5757 3.57574 5.1
      vertex 11.4 4 0.599999
      vertex 11.4 4 5.1
    endloop
  endfacet
  facet normal 0.923906 0.38262 0
    outer loop
      vertex 11.4 4 0.599999
      vertex 11.5757 3.57574 5.1
      vertex 11.5757 3.57574 0.599999
    endloop
  endfacet
  facet normal -0.382663 0.923888 0
    outer loop
      vertex 12.4243 3.57574 0.599999
      vertex 12 3.4 5.1
      vertex 12.4243 3.57574 5.1
    endloop
  endfacet
  facet normal -0.382663 0.923888 0
    outer loop
      vertex 12 3.4 5.1
      vertex 12.4243 3.57574 0.599999
      vertex 12 3.4 0.599999
    endloop
  endfacet
  facet normal -0.923919 -0.382589 0
    outer loop
      vertex 12.6 12 0.599999
      vertex 12.4243 12.4243 5.1
      vertex 12.4243 12.4243 0.599999
    endloop
  endfacet
  facet normal -0.923919 -0.382589 0
    outer loop
      vertex 12.4243 12.4243 5.1
      vertex 12.6 12 0.599999
      vertex 12.6 12 5.1
    endloop
  endfacet
  facet normal 0.382589 -0.923919 0
    outer loop
      vertex 11.5757 12.4243 0.599999
      vertex 12 12.6 5.1
      vertex 11.5757 12.4243 5.1
    endloop
  endfacet
  facet normal 0.382589 -0.923919 0
    outer loop
      vertex 12 12.6 5.1
      vertex 11.5757 12.4243 0.599999
      vertex 12 12.6 0.599999
    endloop
  endfacet
  facet normal -0.382589 -0.923919 0
    outer loop
      vertex 12 12.6 0.599999
      vertex 12.4243 12.4243 5.1
      vertex 12 12.6 5.1
    endloop
  endfacet
  facet normal -0.382589 -0.923919 -0
    outer loop
      vertex 12.4243 12.4243 5.1
      vertex 12 12.6 0.599999
      vertex 12.4243 12.4243 0.599999
    endloop
  endfacet
  facet normal 0 0 -1
    outer loop
      vertex 12.4243 11.5757 5.1
      vertex 12.4243 12.4243 5.1
      vertex 12.6 12 5.1
    endloop
  endfacet
  facet normal 0 0 -1
    outer loop
      vertex 12 11.4 5.1
      vertex 12.4243 12.4243 5.1
      vertex 12.4243 11.5757 5.1
    endloop
  endfacet
  facet normal 0 0 -1
    outer loop
      vertex 12 11.4 5.1
      vertex 12 12.6 5.1
      vertex 12.4243 12.4243 5.1
    endloop
  endfacet
  facet normal 0 0 -1
    outer loop
      vertex 11.5757 11.5757 5.1
      vertex 12 12.6 5.1
      vertex 12 11.4 5.1
    endloop
  endfacet
  facet normal 0 0 -1
    outer loop
      vertex 11.5757 11.5757 5.1
      vertex 11.5757 12.4243 5.1
      vertex 12 12.6 5.1
    endloop
  endfacet
  facet normal 0 -0 -1
    outer loop
      vertex 11.5757 12.4243 5.1
      vertex 11.5757 11.5757 5.1
      vertex 11.4 12 5.1
    endloop
  endfacet
  facet normal 0.923919 -0.382589 0
    outer loop
      vertex 11.4 12 5.1
      vertex 11.5757 12.4243 0.599999
      vertex 11.5757 12.4243 5.1
    endloop
  endfacet
  facet normal 0.923919 -0.382589 0
    outer loop
      vertex 11.5757 12.4243 0.599999
      vertex 11.4 12 5.1
      vertex 11.4 12 0.599999
    endloop
  endfacet
  facet normal 0 0 1
    outer loop
      vertex 12.4243 12.4243 0.599999
      vertex 12.4243 11.5757 0.599999
      vertex 12.6 12 0.599999
    endloop
  endfacet
  facet normal 0 0 1
    outer loop
      vertex 12 12.6 0.599999
      vertex 12.4243 11.5757 0.599999
      vertex 12.4243 12.4243 0.599999
    endloop
  endfacet
  facet normal 0 0 1
    outer loop
      vertex 12 12.6 0.599999
      vertex 12 11.4 0.599999
      vertex 12.4243 11.5757 0.599999
    endloop
  endfacet
  facet normal -0 0 1
    outer loop
      vertex 11.5757 12.4243 0.599999
      vertex 12 11.4 0.599999
      vertex 12 12.6 0.599999
    endloop
  endfacet
  facet normal 0 0 1
    outer loop
      vertex 11.5757 12.4243 0.599999
      vertex 11.5757 11.5757 0.599999
      vertex 12 11.4 0.599999
    endloop
  endfacet
  facet normal 0 -0 1
    outer loop
      vertex 11.5757 11.5757 0.599999
      vertex 11.5757 12.4243 0.599999
      vertex 11.4 12 0.599999
    endloop
  endfacet
  facet normal -0.923919 0.382589 0
    outer loop
      vertex 12.4243 11.5757 0.599999
      vertex 12.6 12 5.1
      vertex 12.6 12 0.599999
    endloop
  endfacet
  facet normal -0.923919 0.382589 0
    outer loop
      vertex 12.6 12 5.1
      vertex 12.4243 11.5757 0.599999
      vertex 12.4243 11.5757 5.1
    endloop
  endfacet
  facet normal 0.382589 0.923919 -0
    outer loop
      vertex 12 11.4 0.599999
      vertex 11.5757 11.5757 5.1
      vertex 12 11.4 5.1
    endloop
  endfacet
  facet normal 0.382589 0.923919 0
    outer loop
      vertex 11.5757 11.5757 5.1
      vertex 12 11.4 0.599999
      vertex 11.5757 11.5757 0.599999
    endloop
  endfacet
  facet normal 0.923919 0.382589 0
    outer loop
      vertex 11.5757 11.5757 5.1
      vertex 11.4 12 0.599999
      vertex 11.4 12 5.1
    endloop
  endfacet
  facet normal 0.923919 0.382589 0
    outer loop
      vertex 11.4 12 0.599999
      vertex 11.5757 11.5757 5.1
      vertex 11.5757 11.5757 0.599999
    endloop
  endfacet
  facet normal -0.382589 0.923919 0
    outer loop
      vertex 12.4243 11.5757 0.599999
      vertex 12 11.4 5.1
      vertex 12.4243 11.5757 5.1
    endloop
  endfacet
  facet normal -0.382589 0.923919 0
    outer loop
      vertex 12 11.4 5.1
      vertex 12.4243 11.5757 0.599999
      vertex 12 11.4 0.599999
    endloop
  endfacet
  facet normal -1 0 0
    outer loop
      vertex 6.65 16 -1.9
      vertex 6.65 15.9 0
      vertex 6.65 16 0
    endloop
  endfacet
  facet normal -1 0 0
    outer loop
      vertex 6.65 8 -1.9
      vertex 6.65 15.9 0
      vertex 6.65 16 -1.9
    endloop
  endfacet
  facet normal -1 -0 0
    outer loop
      vertex 6.65 15.9 0
      vertex 6.65 8 -1.9
      vertex 6.65 8 0
    endloop
  endfacet
  facet normal 0 1 0
    outer loop
      vertex 9.35 16 0
      vertex 6.65 16 -1.9
      vertex 6.65 16 0
    endloop
  endfacet
  facet normal 0 1 0
    outer loop
      vertex 9.425 16 -2.85
      vertex 6.65 16 -1.9
      vertex 9.35 16 0
    endloop
  endfacet
  facet normal 0 1 0
    outer loop
      vertex 7.65228 16 -3.325
      vertex 9.425 16 -2.85
      vertex 9.29772 16 -3.325
    endloop
  endfacet
  facet normal 0 1 0
    outer loop
      vertex 9.425 16 -2.85
      vertex 7.65228 16 -3.325
      vertex 6.65 16 -1.9
    endloop
  endfacet
  facet normal 0 1 -0
    outer loop
      vertex 8.95 16 -3.67272
      vertex 7.65228 16 -3.325
      vertex 9.29772 16 -3.325
    endloop
  endfacet
  facet normal 0 1 0
    outer loop
      vertex 8.95 16 -3.67272
      vertex 8 16 -3.67272
      vertex 7.65228 16 -3.325
    endloop
  endfacet
  facet normal -0 1 0
    outer loop
      vertex 8 16 -3.67272
      vertex 8.95 16 -3.67272
      vertex 8.475 16 -3.8
    endloop
  endfacet
  facet normal -0.817941 0 -0.575302
    outer loop
      vertex 7.65228 8 -3.325
      vertex 6.65 16 -1.9
      vertex 7.65228 16 -3.325
    endloop
  endfacet
  facet normal -0.817941 -0 -0.575302
    outer loop
      vertex 6.65 16 -1.9
      vertex 7.65228 8 -3.325
      vertex 6.65 8 -1.9
    endloop
  endfacet
  facet normal 0 -1 0
    outer loop
      vertex 6.65 8 -1.9
      vertex 9.35 8 0
      vertex 6.65 8 0
    endloop
  endfacet
  facet normal 0 -1 0
    outer loop
      vertex 6.65 8 -1.9
      vertex 9.425 8 -2.85
      vertex 9.35 8 0
    endloop
  endfacet
  facet normal 0 -1 0
    outer loop
      vertex 7.65228 8 -3.325
      vertex 9.425 8 -2.85
      vertex 6.65 8 -1.9
    endloop
  endfacet
  facet normal 0 -1 0
    outer loop
      vertex 7.65228 8 -3.325
      vertex 9.29772 8 -3.325
      vertex 9.425 8 -2.85
    endloop
  endfacet
  facet normal 0 -1 0
    outer loop
      vertex 8 8 -3.67272
      vertex 9.29772 8 -3.325
      vertex 7.65228 8 -3.325
    endloop
  endfacet
  facet normal 0 -1 0
    outer loop
      vertex 8 8 -3.67272
      vertex 8.95 8 -3.67272
      vertex 9.29772 8 -3.325
    endloop
  endfacet
  facet normal -0 -1 0
    outer loop
      vertex 8.95 8 -3.67272
      vertex 8 8 -3.67272
      vertex 8.475 8 -3.8
    endloop
  endfacet
  facet normal 0.999654 -0 0.0263067
    outer loop
      vertex 9.35 15.9 0
      vertex 9.425 16 -2.85
      vertex 9.35 16 0
    endloop
  endfacet
  facet normal 0.999654 0 0.0263067
    outer loop
      vertex 9.425 8 -2.85
      vertex 9.35 15.9 0
      vertex 9.35 8 0
    endloop
  endfacet
  facet normal 0.999654 0 0.0263067
    outer loop
      vertex 9.35 15.9 0
      vertex 9.425 8 -2.85
      vertex 9.425 16 -2.85
    endloop
  endfacet
  facet normal 0.965924 0 -0.258827
    outer loop
      vertex 9.425 8 -2.85
      vertex 9.29772 16 -3.325
      vertex 9.425 16 -2.85
    endloop
  endfacet
  facet normal 0.965924 0 -0.258827
    outer loop
      vertex 9.29772 16 -3.325
      vertex 9.425 8 -2.85
      vertex 9.29772 8 -3.325
    endloop
  endfacet
  facet normal 0.258827 0 -0.965924
    outer loop
      vertex 8.475 8 -3.8
      vertex 8.95 16 -3.67272
      vertex 8.95 8 -3.67272
    endloop
  endfacet
  facet normal 0.258827 0 -0.965924
    outer loop
      vertex 8.95 16 -3.67272
      vertex 8.475 8 -3.8
      vertex 8.475 16 -3.8
    endloop
  endfacet
  facet normal -0.707107 0 -0.707107
    outer loop
      vertex 7.65228 8 -3.325
      vertex 8 16 -3.67272
      vertex 8 8 -3.67272
    endloop
  endfacet
  facet normal -0.707107 0 -0.707107
    outer loop
      vertex 8 16 -3.67272
      vertex 7.65228 8 -3.325
      vertex 7.65228 16 -3.325
    endloop
  endfacet
  facet normal 0.707107 0 -0.707107
    outer loop
      vertex 9.29772 8 -3.325
      vertex 8.95 16 -3.67272
      vertex 9.29772 16 -3.325
    endloop
  endfacet
  facet normal 0.707107 0 -0.707107
    outer loop
      vertex 8.95 16 -3.67272
      vertex 9.29772 8 -3.325
      vertex 8.95 8 -3.67272
    endloop
  endfacet
  facet normal -0.258827 0 -0.965924
    outer loop
      vertex 8 8 -3.67272
      vertex 8.475 16 -3.8
      vertex 8.475 8 -3.8
    endloop
  endfacet
  facet normal -0.258827 0 -0.965924
    outer loop
      vertex 8.475 16 -3.8
      vertex 8 8 -3.67272
      vertex 8 16 -3.67272
    endloop
  endfacet
  facet normal 0 0 1
    outer loop
      vertex 13.4092 1.44939 -1.9
      vertex 13.4092 -1.44939 -1.9
      vertex 13.6 0 -1.9
    endloop
  endfacet
  facet normal 0 0 1
    outer loop
      vertex 12.8497 2.8 -1.9
      vertex 13.4092 -1.44939 -1.9
      vertex 13.4092 1.44939 -1.9
    endloop
  endfacet
  facet normal 0 0 1
    outer loop
      vertex 12.8497 2.8 -1.9
      vertex 12.8497 -2.8 -1.9
      vertex 13.4092 -1.44939 -1.9
    endloop
  endfacet
  facet normal 0 0 1
    outer loop
      vertex 11.9598 3.9598 -1.9
      vertex 12.8497 -2.8 -1.9
      vertex 12.8497 2.8 -1.9
    endloop
  endfacet
  facet normal 0 0 1
    outer loop
      vertex 11.9598 3.9598 -1.9
      vertex 11.9598 -3.9598 -1.9
      vertex 12.8497 -2.8 -1.9
    endloop
  endfacet
  facet normal 0 0 1
    outer loop
      vertex 10.8 4.84974 -1.9
      vertex 11.9598 -3.9598 -1.9
      vertex 11.9598 3.9598 -1.9
    endloop
  endfacet
  facet normal 0 0 1
    outer loop
      vertex 10.8 4.84974 -1.9
      vertex 10.8 -4.84974 -1.9
      vertex 11.9598 -3.9598 -1.9
    endloop
  endfacet
  facet normal 0 0 1
    outer loop
      vertex 9.44939 5.40919 -1.9
      vertex 10.8 -4.84974 -1.9
      vertex 10.8 4.84974 -1.9
    endloop
  endfacet
  facet normal 0 0 1
    outer loop
      vertex 9.44939 5.40919 -1.9
      vertex 9.44939 -5.40918 -1.9
      vertex 10.8 -4.84974 -1.9
    endloop
  endfacet
  facet normal 0 0 1
    outer loop
      vertex 8 5.6 -1.9
      vertex 9.44939 -5.40918 -1.9
      vertex 9.44939 5.40919 -1.9
    endloop
  endfacet
  facet normal 0 0 1
    outer loop
      vertex 8 5.6 -1.9
      vertex 8 -5.6 -1.9
      vertex 9.44939 -5.40918 -1.9
    endloop
  endfacet
  facet normal -0 0 1
    outer loop
      vertex 6.55061 5.40919 -1.9
      vertex 8 -5.6 -1.9
      vertex 8 5.6 -1.9
    endloop
  endfacet
  facet normal 0 0 1
    outer loop
      vertex 6.55061 5.40919 -1.9
      vertex 6.55061 -5.40918 -1.9
      vertex 8 -5.6 -1.9
    endloop
  endfacet
  facet normal -0 0 1
    outer loop
      vertex 5.2 4.84974 -1.9
      vertex 6.55061 -5.40918 -1.9
      vertex 6.55061 5.40919 -1.9
    endloop
  endfacet
  facet normal 0 0 1
    outer loop
      vertex 5.2 4.84974 -1.9
      vertex 5.2 -4.84974 -1.9
      vertex 6.55061 -5.40918 -1.9
    endloop
  endfacet
  facet normal -0 0 1
    outer loop
      vertex 4.0402 3.9598 -1.9
      vertex 5.2 -4.84974 -1.9
      vertex 5.2 4.84974 -1.9
    endloop
  endfacet
  facet normal 0 0 1
    outer loop
      vertex 4.0402 3.9598 -1.9
      vertex 4.0402 -3.9598 -1.9
      vertex 5.2 -4.84974 -1.9
    endloop
  endfacet
  facet normal -0 0 1
    outer loop
      vertex 3.15026 2.8 -1.9
      vertex 4.0402 -3.9598 -1.9
      vertex 4.0402 3.9598 -1.9
    endloop
  endfacet
  facet normal 0 0 1
    outer loop
      vertex 3.15026 2.8 -1.9
      vertex 3.15026 -2.8 -1.9
      vertex 4.0402 -3.9598 -1.9
    endloop
  endfacet
  facet normal -0 0 1
    outer loop
      vertex 2.59081 1.44939 -1.9
      vertex 3.15026 -2.8 -1.9
      vertex 3.15026 2.8 -1.9
    endloop
  endfacet
  facet normal 0 0 1
    outer loop
      vertex 2.59081 1.44939 -1.9
      vertex 2.59081 -1.44939 -1.9
      vertex 3.15026 -2.8 -1.9
    endloop
  endfacet
  facet normal 0 -0 1
    outer loop
      vertex 2.59081 -1.44939 -1.9
      vertex 2.59081 1.44939 -1.9
      vertex 2.4 0 -1.9
    endloop
  endfacet
  facet normal 0.382683 -0.92388 0
    outer loop
      vertex 9.44939 -5.40918 -3.8
      vertex 10.8 -4.84974 -1.9
      vertex 9.44939 -5.40918 -1.9
    endloop
  endfacet
  facet normal 0.382683 -0.92388 0
    outer loop
      vertex 10.8 -4.84974 -1.9
      vertex 9.44939 -5.40918 -3.8
      vertex 10.8 -4.84974 -3.8
    endloop
  endfacet
  facet normal -0.991445 -0.130522 0
    outer loop
      vertex 2.59081 -1.44939 -3.8
      vertex 2.4 0 -1.9
      vertex 2.4 0 -3.8
    endloop
  endfacet
  facet normal -0.991445 -0.130522 0
    outer loop
      vertex 2.4 0 -1.9
      vertex 2.59081 -1.44939 -3.8
      vertex 2.59081 -1.44939 -1.9
    endloop
  endfacet
  facet normal 0.793368 0.608742 0
    outer loop
      vertex 12.8497 2.8 -1.9
      vertex 11.9598 3.9598 -3.8
      vertex 11.9598 3.9598 -1.9
    endloop
  endfacet
  facet normal 0.793368 0.608742 0
    outer loop
      vertex 11.9598 3.9598 -3.8
      vertex 12.8497 2.8 -1.9
      vertex 12.8497 2.8 -3.8
    endloop
  endfacet
  facet normal -0.130522 0.991445 0
    outer loop
      vertex 8 5.6 -3.8
      vertex 6.55061 5.40919 -1.9
      vertex 8 5.6 -1.9
    endloop
  endfacet
  facet normal -0.130522 0.991445 0
    outer loop
      vertex 6.55061 5.40919 -1.9
      vertex 8 5.6 -3.8
      vertex 6.55061 5.40919 -3.8
    endloop
  endfacet
  facet normal 0.608759 -0.793355 0
    outer loop
      vertex 10.8 -4.84974 -3.8
      vertex 11.9598 -3.9598 -1.9
      vertex 10.8 -4.84974 -1.9
    endloop
  endfacet
  facet normal 0.608759 -0.793355 0
    outer loop
      vertex 11.9598 -3.9598 -1.9
      vertex 10.8 -4.84974 -3.8
      vertex 11.9598 -3.9598 -3.8
    endloop
  endfacet
  facet normal -0.608759 -0.793355 0
    outer loop
      vertex 4.0402 -3.9598 -3.8
      vertex 5.2 -4.84974 -1.9
      vertex 4.0402 -3.9598 -1.9
    endloop
  endfacet
  facet normal -0.608759 -0.793355 -0
    outer loop
      vertex 5.2 -4.84974 -1.9
      vertex 4.0402 -3.9598 -3.8
      vertex 5.2 -4.84974 -3.8
    endloop
  endfacet
  facet normal -0.793355 -0.608759 0
    outer loop
      vertex 4.0402 -3.9598 -3.8
      vertex 3.15026 -2.8 -1.9
      vertex 3.15026 -2.8 -3.8
    endloop
  endfacet
  facet normal -0.793355 -0.608759 0
    outer loop
      vertex 3.15026 -2.8 -1.9
      vertex 4.0402 -3.9598 -3.8
      vertex 4.0402 -3.9598 -1.9
    endloop
  endfacet
  facet normal 0.991446 0.130516 0
    outer loop
      vertex 13.6 0 -1.9
      vertex 13.4092 1.44939 -3.8
      vertex 13.4092 1.44939 -1.9
    endloop
  endfacet
  facet normal 0.991446 0.130516 0
    outer loop
      vertex 13.4092 1.44939 -3.8
      vertex 13.6 0 -1.9
      vertex 13.6 0 -3.8
    endloop
  endfacet
  facet normal -0.382689 0.923877 0
    outer loop
      vertex 6.55061 5.40919 -3.8
      vertex 5.2 4.84974 -1.9
      vertex 6.55061 5.40919 -1.9
    endloop
  endfacet
  facet normal -0.382689 0.923877 0
    outer loop
      vertex 5.2 4.84974 -1.9
      vertex 6.55061 5.40919 -3.8
      vertex 5.2 4.84974 -3.8
    endloop
  endfacet
  facet normal 0.793368 -0.608742 0
    outer loop
      vertex 11.9598 -3.9598 -1.9
      vertex 12.8497 -2.8 -3.8
      vertex 12.8497 -2.8 -1.9
    endloop
  endfacet
  facet normal 0.793368 -0.608742 0
    outer loop
      vertex 12.8497 -2.8 -3.8
      vertex 11.9598 -3.9598 -1.9
      vertex 11.9598 -3.9598 -3.8
    endloop
  endfacet
  facet normal -0.130529 -0.991444 0
    outer loop
      vertex 6.55061 -5.40918 -3.8
      vertex 8 -5.6 -1.9
      vertex 6.55061 -5.40918 -1.9
    endloop
  endfacet
  facet normal -0.130529 -0.991444 -0
    outer loop
      vertex 8 -5.6 -1.9
      vertex 6.55061 -5.40918 -3.8
      vertex 8 -5.6 -3.8
    endloop
  endfacet
  facet normal -0.991445 0.130522 0
    outer loop
      vertex 2.4 0 -3.8
      vertex 2.59081 1.44939 -1.9
      vertex 2.59081 1.44939 -3.8
    endloop
  endfacet
  facet normal -0.991445 0.130522 0
    outer loop
      vertex 2.59081 1.44939 -1.9
      vertex 2.4 0 -3.8
      vertex 2.4 0 -1.9
    endloop
  endfacet
  facet normal -0.923877 -0.382689 0
    outer loop
      vertex 3.15026 -2.8 -3.8
      vertex 2.59081 -1.44939 -1.9
      vertex 2.59081 -1.44939 -3.8
    endloop
  endfacet
  facet normal -0.923877 -0.382689 0
    outer loop
      vertex 2.59081 -1.44939 -1.9
      vertex 3.15026 -2.8 -3.8
      vertex 3.15026 -2.8 -1.9
    endloop
  endfacet
  facet normal -0.382683 -0.92388 0
    outer loop
      vertex 5.2 -4.84974 -3.8
      vertex 6.55061 -5.40918 -1.9
      vertex 5.2 -4.84974 -1.9
    endloop
  endfacet
  facet normal -0.382683 -0.92388 -0
    outer loop
      vertex 6.55061 -5.40918 -1.9
      vertex 5.2 -4.84974 -3.8
      vertex 6.55061 -5.40918 -3.8
    endloop
  endfacet
  facet normal 0.991446 -0.130516 0
    outer loop
      vertex 13.4092 -1.44939 -1.9
      vertex 13.6 0 -3.8
      vertex 13.6 0 -1.9
    endloop
  endfacet
  facet normal 0.991446 -0.130516 0
    outer loop
      vertex 13.6 0 -3.8
      vertex 13.4092 -1.44939 -1.9
      vertex 13.4092 -1.44939 -3.8
    endloop
  endfacet
  facet normal 0.382689 0.923877 -0
    outer loop
      vertex 10.8 4.84974 -3.8
      vertex 9.44939 5.40919 -1.9
      vertex 10.8 4.84974 -1.9
    endloop
  endfacet
  facet normal 0.382689 0.923877 0
    outer loop
      vertex 9.44939 5.40919 -1.9
      vertex 10.8 4.84974 -3.8
      vertex 9.44939 5.40919 -3.8
    endloop
  endfacet
  facet normal 0.130522 0.991445 -0
    outer loop
      vertex 9.44939 5.40919 -3.8
      vertex 8 5.6 -1.9
      vertex 9.44939 5.40919 -1.9
    endloop
  endfacet
  facet normal 0.130522 0.991445 0
    outer loop
      vertex 8 5.6 -1.9
      vertex 9.44939 5.40919 -3.8
      vertex 8 5.6 -3.8
    endloop
  endfacet
  facet normal -0.608759 0.793355 0
    outer loop
      vertex 5.2 4.84974 -3.8
      vertex 4.0402 3.9598 -1.9
      vertex 5.2 4.84974 -1.9
    endloop
  endfacet
  facet normal -0.608759 0.793355 0
    outer loop
      vertex 4.0402 3.9598 -1.9
      vertex 5.2 4.84974 -3.8
      vertex 4.0402 3.9598 -3.8
    endloop
  endfacet
  facet normal -0.923877 0.382689 0
    outer loop
      vertex 2.59081 1.44939 -3.8
      vertex 3.15026 2.8 -1.9
      vertex 3.15026 2.8 -3.8
    endloop
  endfacet
  facet normal -0.923877 0.382689 0
    outer loop
      vertex 3.15026 2.8 -1.9
      vertex 2.59081 1.44939 -3.8
      vertex 2.59081 1.44939 -1.9
    endloop
  endfacet
  facet normal 0.923865 -0.382718 0
    outer loop
      vertex 12.8497 -2.8 -1.9
      vertex 13.4092 -1.44939 -3.8
      vertex 13.4092 -1.44939 -1.9
    endloop
  endfacet
  facet normal 0.923865 -0.382718 0
    outer loop
      vertex 13.4092 -1.44939 -3.8
      vertex 12.8497 -2.8 -1.9
      vertex 12.8497 -2.8 -3.8
    endloop
  endfacet
  facet normal 0.130529 -0.991444 0
    outer loop
      vertex 8 -5.6 -3.8
      vertex 9.44939 -5.40918 -1.9
      vertex 8 -5.6 -1.9
    endloop
  endfacet
  facet normal 0.130529 -0.991444 0
    outer loop
      vertex 9.44939 -5.40918 -1.9
      vertex 8 -5.6 -3.8
      vertex 9.44939 -5.40918 -3.8
    endloop
  endfacet
  facet normal 0 0 -1
    outer loop
      vertex 13.4092 -1.44939 -3.8
      vertex 13.4092 1.44939 -3.8
      vertex 13.6 0 -3.8
    endloop
  endfacet
  facet normal 0 0 -1
    outer loop
      vertex 12.8497 -2.8 -3.8
      vertex 13.4092 1.44939 -3.8
      vertex 13.4092 -1.44939 -3.8
    endloop
  endfacet
  facet normal 0 0 -1
    outer loop
      vertex 12.8497 -2.8 -3.8
      vertex 12.8497 2.8 -3.8
      vertex 13.4092 1.44939 -3.8
    endloop
  endfacet
  facet normal 0 0 -1
    outer loop
      vertex 11.9598 -3.9598 -3.8
      vertex 12.8497 2.8 -3.8
      vertex 12.8497 -2.8 -3.8
    endloop
  endfacet
  facet normal 0 0 -1
    outer loop
      vertex 11.9598 -3.9598 -3.8
      vertex 11.9598 3.9598 -3.8
      vertex 12.8497 2.8 -3.8
    endloop
  endfacet
  facet normal 0 0 -1
    outer loop
      vertex 10.8 -4.84974 -3.8
      vertex 11.9598 3.9598 -3.8
      vertex 11.9598 -3.9598 -3.8
    endloop
  endfacet
  facet normal 0 0 -1
    outer loop
      vertex 10.8 -4.84974 -3.8
      vertex 10.8 4.84974 -3.8
      vertex 11.9598 3.9598 -3.8
    endloop
  endfacet
  facet normal 0 0 -1
    outer loop
      vertex 9.44939 -5.40918 -3.8
      vertex 10.8 4.84974 -3.8
      vertex 10.8 -4.84974 -3.8
    endloop
  endfacet
  facet normal 0 0 -1
    outer loop
      vertex 9.44939 -5.40918 -3.8
      vertex 9.44939 5.40919 -3.8
      vertex 10.8 4.84974 -3.8
    endloop
  endfacet
  facet normal 0 0 -1
    outer loop
      vertex 8 -5.6 -3.8
      vertex 9.44939 5.40919 -3.8
      vertex 9.44939 -5.40918 -3.8
    endloop
  endfacet
  facet normal 0 0 -1
    outer loop
      vertex 8 -5.6 -3.8
      vertex 8 5.6 -3.8
      vertex 9.44939 5.40919 -3.8
    endloop
  endfacet
  facet normal 0 0 -1
    outer loop
      vertex 6.55061 -5.40918 -3.8
      vertex 8 5.6 -3.8
      vertex 8 -5.6 -3.8
    endloop
  endfacet
  facet normal 0 0 -1
    outer loop
      vertex 6.55061 -5.40918 -3.8
      vertex 6.55061 5.40919 -3.8
      vertex 8 5.6 -3.8
    endloop
  endfacet
  facet normal 0 0 -1
    outer loop
      vertex 5.2 -4.84974 -3.8
      vertex 6.55061 5.40919 -3.8
      vertex 6.55061 -5.40918 -3.8
    endloop
  endfacet
  facet normal 0 0 -1
    outer loop
      vertex 5.2 -4.84974 -3.8
      vertex 5.2 4.84974 -3.8
      vertex 6.55061 5.40919 -3.8
    endloop
  endfacet
  facet normal 0 0 -1
    outer loop
      vertex 4.0402 -3.9598 -3.8
      vertex 5.2 4.84974 -3.8
      vertex 5.2 -4.84974 -3.8
    endloop
  endfacet
  facet normal 0 0 -1
    outer loop
      vertex 4.0402 -3.9598 -3.8
      vertex 4.0402 3.9598 -3.8
      vertex 5.2 4.84974 -3.8
    endloop
  endfacet
  facet normal 0 0 -1
    outer loop
      vertex 3.15026 -2.8 -3.8
      vertex 4.0402 3.9598 -3.8
      vertex 4.0402 -3.9598 -3.8
    endloop
  endfacet
  facet normal 0 0 -1
    outer loop
      vertex 3.15026 -2.8 -3.8
      vertex 3.15026 2.8 -3.8
      vertex 4.0402 3.9598 -3.8
    endloop
  endfacet
  facet normal 0 0 -1
    outer loop
      vertex 2.59081 -1.44939 -3.8
      vertex 3.15026 2.8 -3.8
      vertex 3.15026 -2.8 -3.8
    endloop
  endfacet
  facet normal 0 0 -1
    outer loop
      vertex 2.59081 -1.44939 -3.8
      vertex 2.59081 1.44939 -3.8
      vertex 3.15026 2.8 -3.8
    endloop
  endfacet
  facet normal 0 -0 -1
    outer loop
      vertex 2.59081 1.44939 -3.8
      vertex 2.59081 -1.44939 -3.8
      vertex 2.4 0 -3.8
    endloop
  endfacet
  facet normal 0.608759 0.793355 -0
    outer loop
      vertex 11.9598 3.9598 -3.8
      vertex 10.8 4.84974 -1.9
      vertex 11.9598 3.9598 -1.9
    endloop
  endfacet
  facet normal 0.608759 0.793355 0
    outer loop
      vertex 10.8 4.84974 -1.9
      vertex 11.9598 3.9598 -3.8
      vertex 10.8 4.84974 -3.8
    endloop
  endfacet
  facet normal -0.793355 0.608759 0
    outer loop
      vertex 3.15026 2.8 -3.8
      vertex 4.0402 3.9598 -1.9
      vertex 4.0402 3.9598 -3.8
    endloop
  endfacet
  facet normal -0.793355 0.608759 0
    outer loop
      vertex 4.0402 3.9598 -1.9
      vertex 3.15026 2.8 -3.8
      vertex 3.15026 2.8 -1.9
    endloop
  endfacet
  facet normal 0.923865 0.382718 0
    outer loop
      vertex 13.4092 1.44939 -1.9
      vertex 12.8497 2.8 -3.8
      vertex 12.8497 2.8 -1.9
    endloop
  endfacet
  facet normal 0.923865 0.382718 0
    outer loop
      vertex 12.8497 2.8 -3.8
      vertex 13.4092 1.44939 -1.9
      vertex 13.4092 1.44939 -3.8
    endloop
  endfacet
endsolid OpenSCAD_Model
