solid OpenSCAD_Model
  facet normal -1 0 0
    outer loop
      vertex 0 0 0
      vertex 0 64 4
      vertex 0 64 0
    endloop
  endfacet
  facet normal -1 -0 0
    outer loop
      vertex 0 64 4
      vertex 0 0 0
      vertex 0 0 4
    endloop
  endfacet
  facet normal 1 -0 0
    outer loop
      vertex 144 0 4
      vertex 144 64 0
      vertex 144 64 4
    endloop
  endfacet
  facet normal 1 0 0
    outer loop
      vertex 144 64 0
      vertex 144 0 4
      vertex 144 0 0
    endloop
  endfacet
  facet normal 0 1 -0
    outer loop
      vertex 144 64 0
      vertex 0 64 4
      vertex 144 64 4
    endloop
  endfacet
  facet normal 0 1 0
    outer loop
      vertex 0 64 4
      vertex 144 64 0
      vertex 0 64 0
    endloop
  endfacet
  facet normal 0 0 -1
    outer loop
      vertex 0 0 0
      vertex 144 64 0
      vertex 144 0 0
    endloop
  endfacet
  facet normal -0 0 -1
    outer loop
      vertex 144 64 0
      vertex 0 0 0
      vertex 0 64 0
    endloop
  endfacet
  facet normal 0 -1 0
    outer loop
      vertex 0 0 0
      vertex 144 0 4
      vertex 0 0 4
    endloop
  endfacet
  facet normal 0 -1 -0
    outer loop
      vertex 144 0 4
      vertex 0 0 0
      vertex 144 0 0
    endloop
  endfacet
  facet normal -0 0 1
    outer loop
      vertex 0 64 4
      vertex 144 0 4
      vertex 144 64 4
    endloop
  endfacet
  facet normal 0 0 1
    outer loop
      vertex 144 0 4
      vertex 0 64 4
      vertex 0 0 4
    endloop
  endfacet
endsolid OpenSCAD_Model
